<?xml version="1.0" encoding="utf-8"?>
<!-- Generator: Adobe Illustrator 16.0.0, SVG Export Plug-In . SVG Version: 6.00 Build 0)  -->
<!DOCTYPE svg PUBLIC "-//W3C//DTD SVG 1.1//EN" "http://www.w3.org/Graphics/SVG/1.1/DTD/svg11.dtd">
<svg version="1.1" xmlns="http://www.w3.org/2000/svg" xmlns:xlink="http://www.w3.org/1999/xlink" x="0px" y="0px" width="204px"
	 height="208.667px" viewBox="0 0 204 208.667" enable-background="new 0 0 204 208.667" xml:space="preserve">
<g id="Layer_1" display="none">
	<circle display="inline" fill="#F6DB5D" cx="107.858" cy="127.474" r="36.858"/>
	<path display="inline" fill="#F6DB5D" d="M129.016,137.124c-21.169,0-38.391-17.223-38.391-38.395
		c0-21.171,17.222-38.394,38.391-38.394c21.174,0,38.398,17.223,38.398,38.394C167.414,119.901,150.189,137.124,129.016,137.124z
		 M129.016,63.406c-19.474,0-35.32,15.846-35.32,35.323c0,19.478,15.846,35.325,35.32,35.325c19.479,0,35.326-15.847,35.326-35.325
		C164.342,79.252,148.494,63.406,129.016,63.406z"/>
</g>
<g id="Layer_2" display="none">
	<circle display="inline" fill="#F6DB5D" cx="139.367" cy="93.646" r="33.648"/>
	<path display="inline" fill="#F6DB5D" d="M105.303,137.912C86.388,137.912,71,122.523,71,103.611
		c0-18.913,15.389-34.302,34.303-34.302c18.912,0,34.302,15.389,34.302,34.302C139.604,122.523,124.215,137.912,105.303,137.912z
		 M105.303,70.615c-18.195,0-32.996,14.803-32.996,32.996c0,18.194,14.801,32.995,32.996,32.995
		c18.193,0,32.995-14.801,32.995-32.995C138.298,85.418,123.496,70.615,105.303,70.615z"/>
</g>
<g id="Layer_3" display="none">
	<g display="inline">
		<g>
			<g>
				<path fill="#F6DB5D" d="M86.861,88.177l22.188,22.188l22.185-22.188l-22.185-22.187L86.861,88.177z M109.049,114.336
					c-0.42,0-0.842-0.158-1.163-0.482L83.371,89.342c-0.642-0.644-0.642-1.687,0-2.326L107.886,62.5
					c0.642-0.642,1.683-0.642,2.323,0l24.515,24.516c0.641,0.64,0.641,1.683,0,2.326l-24.515,24.512
					C109.891,114.178,109.47,114.336,109.049,114.336z"/>
			</g>
		</g>
		
			<rect x="79.183" y="72.089" transform="matrix(0.7071 -0.7071 0.7071 0.7071 -34.9625 94.4319)" fill="#F6DB5D" width="34.667" height="34.666"/>
	</g>
</g>
<g id="Layer_4" display="none">
	<path display="inline" fill="#F6DB5D" d="M121.854,81.641h-14.137V67.498c0-3.352-2.72-6.065-6.063-6.065
		c-3.35,0-6.063,2.713-6.063,6.065v14.143H81.449c-3.348,0-6.065,2.715-6.065,6.059c0,3.35,2.717,6.063,6.065,6.063H95.59v14.146
		c0,3.35,2.713,6.058,6.063,6.058c3.344,0,6.063-2.708,6.063-6.058V93.767h14.137c3.349,0,6.067-2.715,6.067-6.059
		C127.921,84.358,125.203,81.641,121.854,81.641z"/>
</g>
<g id="Layer_5" display="none">
	<path display="inline" fill="#F6DB5D" d="M135.834,90.717H77.986l28.924-28.922L135.834,90.717z M85.885,87.445h42.046
		L106.91,66.422L85.885,87.445z"/>
	<path display="inline" fill="#F6DB5D" d="M99.218,127.623L70.294,98.701h57.846L99.218,127.623z M78.193,101.973l21.025,21.023
		l21.02-21.023H78.193z"/>
</g>
<g id="Layer_6">
	
		<line fill="none" stroke="#F6DB5D" stroke-width="5" stroke-linecap="round" stroke-linejoin="round" stroke-miterlimit="10" x1="10.269" y1="12.528" x2="198.619" y2="200.88"/>
</g>
<g id="Layer_7" display="none">
	<path display="inline" fill="#F6DB5D" d="M177.483,148.327c9.44-6.537,9.002-17.078,8.648-25.543
		c-0.346-8.28-0.326-13.517,4.235-16.676c4.563-3.158,9.47-1.335,17.104,1.898c7.801,3.315,17.512,7.433,26.952,0.895
		c9.44-6.537,9.005-17.082,8.651-25.547c-0.34-8.279-0.322-13.517,4.24-16.678c2.332-1.614,2.916-4.81,1.299-7.139
		c-1.615-2.333-4.809-2.914-7.136-1.3c-9.447,6.538-9.009,17.079-8.657,25.542c0.342,8.285,0.319,13.522-4.244,16.681
		c-4.561,3.161-9.47,1.335-17.1-1.899c-7.8-3.31-17.51-7.426-26.955-0.888c-9.438,6.532-9.002,17.075-8.645,25.534
		c0.34,8.286,0.322,13.523-4.242,16.682c-4.565,3.158-9.472,1.335-17.104-1.901c-7.803-3.307-17.511-7.423-26.957-0.886
		c-9.441,6.541-9.005,17.076-8.657,25.548c0.339,8.284,0.322,13.52-4.25,16.684c-4.563,3.158-9.469,1.332-17.099-1.902
		c-7.806-3.31-17.511-7.426-26.958-0.882c-9.446,6.536-9.017,17.081-8.668,25.546c0.343,8.285,0.322,13.523-4.25,16.688
		c-4.57,3.164-9.479,1.34-17.114-1.893c-7.8-3.311-17.515-7.42-26.967-0.877c-2.331,1.613-2.908,4.807-1.294,7.135
		c1.614,2.334,4.804,2.918,7.139,1.301c4.572-3.164,9.481-1.342,17.12,1.895c7.803,3.307,17.514,7.42,26.957,0.881
		c9.453-6.543,9.017-17.082,8.667-25.553c-0.34-8.285-0.316-13.521,4.252-16.686c4.564-3.16,9.475-1.342,17.104,1.896
		c7.807,3.307,17.517,7.428,26.955,0.891c9.449-6.541,9.014-17.082,8.663-25.548c-0.346-8.285-0.322-13.521,4.244-16.684
		c4.563-3.161,9.475-1.338,17.107,1.898C158.328,150.746,168.039,154.865,177.483,148.327z"/>
</g>
<g id="Layer_8" display="none">
	<path display="inline" fill="#F6DB5D" d="M202.17,230.144L36.789,64.763c-12.553-12.554-12.431-33.102,0.273-45.8l0,0l0,0
		c6.151-6.154,14.299-9.574,22.945-9.626c8.628,0.021,16.774,3.264,22.859,9.348l165.375,165.381
		c12.553,12.554,12.437,33.102-0.272,45.803c-6.148,6.151-14.297,9.571-22.949,9.623c-0.069,0.003-0.137,0.003-0.212,0.003
		C216.238,239.494,208.199,236.176,202.17,230.144z M60.028,12.335c-7.854,0.051-15.256,3.156-20.848,8.742l0,0
		c-11.537,11.537-11.652,30.181-0.272,41.565l165.381,165.381c5.463,5.47,12.748,8.471,20.525,8.471c0.061,0,0.125,0,0.19,0
		c7.854-0.046,15.253-3.151,20.845-8.749c11.537-11.53,11.658-30.175,0.275-41.56L80.744,20.804
		c-5.467-5.463-12.748-8.469-20.522-8.469C60.158,12.335,60.095,12.335,60.028,12.335z"/>
</g>
</svg>
