<?xml version="1.0" encoding="utf-8"?>
<!-- Generator: Adobe Illustrator 16.0.0, SVG Export Plug-In . SVG Version: 6.00 Build 0)  -->
<!DOCTYPE svg PUBLIC "-//W3C//DTD SVG 1.1//EN" "http://www.w3.org/Graphics/SVG/1.1/DTD/svg11.dtd">
<svg version="1.1" id="Layer_1" xmlns="http://www.w3.org/2000/svg" xmlns:xlink="http://www.w3.org/1999/xlink" x="0px" y="0px"
	 width="1236px" height="612px" viewBox="0 0 1236 612" enable-background="new 0 0 1236 612" xml:space="preserve">
<path fill="none" stroke="#7D2A8F" stroke-width="3" stroke-linecap="round" stroke-linejoin="round" stroke-miterlimit="10" d="
	M24.706,256.052l-0.017-0.071c-0.066-4.515-3.746-8.154-8.275-8.154c-4.571,0-8.278,3.707-8.278,8.279
	c0,4.57,3.707,8.277,8.278,8.277c4.452,0,8.084-3.517,8.27-7.923l0.02-0.011h110.125c0,0,27.946-2.174,47.329,18.224l0.124,0.155
	l-0.181,0.069c-3.714,2.665-4.564,7.837-1.9,11.551c2.666,3.715,7.837,4.564,11.551,1.899l0.077,0.043l0.013,0.148
	c5.157,10.229,8.485,23.692,8.485,41.412c0,67.053,0,155.289,0,179.768l-0.038,0.107c-4.531,0.604-7.714,4.769-7.11,9.299
	c0.604,4.532,4.767,7.717,9.298,7.113l0.306-0.004l0.057,0.107c4.88,15.037,18.371,41.586,52.8,41.586c48.032,0,93.881,0,93.881,0
	s59.675-8.006,59.675-52.396c0-6.47,0-17.955,0-32.863v-0.292l0.182,0.021c4.571,0,8.456-3.438,8.261-8.932
	c-0.257-7.241-8.442-8.006-8.442-8.006l-0.307-266.059c-4.503-0.315-7.498-4.117-7.239-8.644c0.259-4.563,4.051-8.062,8.613-7.803
	l0.047-0.266l0.038-0.242c3.348-16.766,15.877-54.811,60.702-54.81c7.65,0,15.64,0,22.281,0l-0.034-0.363
	c0-4.571,3.706-8.277,8.277-8.277c4.569,0,8.274,3.706,8.274,8.277l-0.041,0.363c31.674,0,47.844,0,47.844,0
	s58.949,0.728,58.949,62.587c0,50.981-0.012,150.838-0.012,184.402l-0.063,0.134c4.569,0.047,8.237,3.792,8.19,8.362
	s-3.792,8.238-8.36,8.191l-0.174,0.094c-0.52,18.261,2.002,74.637,51.359,74.637c58.949,0,102.614,0,102.614,0
	s55.312-7.277,55.312-67.684c0-16.576,0-47.627,0-83.955l-0.033-0.219l0.054,0.027c4.571,0,8.274-3.707,8.274-8.279
	c0-4.57-3.703-8.277-8.274-8.277l-0.021-0.533c0-93.927,0-211.7,0-211.7s0.512-13.75,6.693-27.967l0.168-0.333l0.188-0.22
	c-3.901-2.381-5.134-7.476-2.752-11.377s7.476-5.136,11.377-2.755l0.082-0.106c7.772-9.319,19.153-16.189,36.643-16.188
	c50.215,0,102.611,0,102.611,0s48.03,8.006,48.03,56.765c0,10.383,0.002,22.984,0.002,36.117l-0.147-0.001
	c-4.571,0-8.277,3.707-8.277,8.277c0,4.572,3.706,8.278,8.277,8.278l0.147-0.023c0,44.13-0.002,89.992-0.002,89.992
	s3.166,53.801,49.045,61.054l0.207,0.063l-0.022,0.69c0,4.57,3.707,8.275,8.277,8.275s8.276-3.705,8.276-8.275l0.202,0.052
	c7.564,0,15.284,0,22.969,0l0.25,0.039l16.563-0.063l0.188,0.023c41.317,0,66.239,0,66.239,0l0.017,0.071
	c0.066,4.515,3.746,8.154,8.275,8.154c4.571,0,8.278-3.707,8.278-8.279c0-4.57-3.707-8.277-8.278-8.277
	c-4.452,0-8.084,3.517-8.271,7.923"/>
</svg>
