<?xml version="1.0" encoding="utf-8"?>
<!-- Generator: Adobe Illustrator 16.0.0, SVG Export Plug-In . SVG Version: 6.00 Build 0)  -->
<!DOCTYPE svg PUBLIC "-//W3C//DTD SVG 1.1//EN" "http://www.w3.org/Graphics/SVG/1.1/DTD/svg11.dtd">
<svg version="1.1" id="Layer_1" xmlns="http://www.w3.org/2000/svg" xmlns:xlink="http://www.w3.org/1999/xlink" x="0px" y="0px"
	 width="1214px" height="548.5px" viewBox="6.438 25 1214 548.5" enable-background="new 6.438 25 1214 548.5" xml:space="preserve"
	>
<path fill="none" stroke="#7D2A8F" stroke-width="3.0023" stroke-linecap="round" stroke-linejoin="round" stroke-miterlimit="10" d="
	M1202.424,290.187c0.226-4.37,3.846-7.845,8.28-7.845c4.577,0,8.29,3.707,8.29,8.278c0,4.571-3.713,8.278-8.29,8.278
	c-4.579,0-8.29-3.707-8.29-8.278l-0.271-0.029c0,0-56.31,0-112.435,0c-56.126,0-59.771-61.859-59.771-61.859s0-93.881,0-142.64
	c0-48.759-48.107-56.765-48.107-56.765s-52.477,0-102.769,0c-50.294,0-52.481,58.947-52.481,58.947s0,252.533,0,312.937
	c0,60.402-55.398,67.682-55.398,67.682s-43.732,0-102.772,0c-59.04,0-51.021-80.053-51.021-80.053s0-133.909,0-195.769
	c0-61.86-59.042-62.587-59.042-62.587s-29.152,0-86.736,0c-57.584,0-61.956,62.587-61.956,62.587s0,280.916,0,325.308
	c0,44.394-59.768,52.398-59.768,52.398s-45.919,0-94.026,0c-48.106,0-55.398-51.67-55.398-51.67s0-107.709,0-186.308
	c0-78.598-65.599-73.503-65.599-73.503H25.005l-0.431,0.319c0,4.571-3.713,8.278-8.292,8.278c-4.577,0-8.289-3.707-8.289-8.278
	c0-4.571,3.711-8.278,8.289-8.278c4.338,0,7.901,3.329,8.262,7.567"/>
</svg>
