<?xml version="1.0" encoding="utf-8"?>
<!-- Generator: Adobe Illustrator 16.0.0, SVG Export Plug-In . SVG Version: 6.00 Build 0)  -->
<!DOCTYPE svg PUBLIC "-//W3C//DTD SVG 1.1//EN" "http://www.w3.org/Graphics/SVG/1.1/DTD/svg11.dtd">
<svg version="1.1" id="Layer_1" xmlns="http://www.w3.org/2000/svg" xmlns:xlink="http://www.w3.org/1999/xlink" x="0px" y="0px"
	 width="1236px" height="612px" viewBox="0 0 1236 612" enable-background="new 0 0 1236 612" xml:space="preserve">
<g>
	<path fill="none" stroke="#7D2A8F" stroke-width="3" stroke-miterlimit="10" d="M191.734,288.391l0.106,0.148
		c5.157,10.229,8.485,23.693,8.485,41.412c0,67.053,0,155.289,0,179.768l-0.014,0.156"/>
	<path fill="none" stroke="#7D2A8F" stroke-width="3" stroke-miterlimit="10" d="M202.781,526.234l0.057,0.109
		c4.88,15.037,18.371,41.586,52.8,41.586c48.032,0,93.881,0,93.881,0s59.675-8.006,59.675-52.398c0-6.468,0-17.955,0-32.863v-0.292"
		/>
	<path fill="none" stroke="#7D2A8F" stroke-width="3" stroke-miterlimit="10" d="M409.193,465.834v-0.375
		c0-81.465,0-227.23,0-265.709l-0.006-0.563"/>
	<path fill="none" stroke="#7D2A8F" stroke-width="3" stroke-miterlimit="10" d="M493.333,127.635c-6.643,0-14.63,0-22.281,0
		c-44.825,0-57.356,38.044-60.702,54.81l-0.038,0.242"/>
	<path fill="none" stroke="#7D2A8F" stroke-width="3" stroke-miterlimit="10" d="M616.594,374.813
		c0-33.564,0.011-133.608,0.011-184.59c0-61.86-58.95-62.587-58.95-62.587c0,0-16.169,0-47.842,0"/>
	<path fill="none" stroke="#7D2A8F" stroke-width="3" stroke-miterlimit="10" d="M616.188,391.406
		c-0.52,18.261,2.001,74.637,51.359,74.637c58.949,0,102.614,0,102.614,0s55.312-7.277,55.312-67.682c0-16.577,0-47.627,0-83.956
		l-0.035-0.218"/>
	<path fill="none" stroke="#7D2A8F" stroke-width="3" stroke-miterlimit="10" d="M825.473,297.719v-0.594c0-93.927,0-211.7,0-211.7
		s0.51-13.75,6.693-27.967l0.168-0.333"/>
	<path fill="none" stroke="#7D2A8F" stroke-width="3" stroke-miterlimit="10" d="M1028.516,119.359
		c0-13.133-0.001-25.734-0.001-36.117c0-48.759-48.032-56.765-48.032-56.765s-52.396,0-102.611,0
		c-17.488,0-29.151,7.15-36.924,16.469l-0.156,0.178"/>
	<path fill="none" stroke="#7D2A8F" stroke-width="3" stroke-miterlimit="10" d="M1028.516,135.891
		c0,44.13-0.001,89.992-0.001,89.992s3.166,53.801,49.044,61.054l0.207,0.063"/>
	<path fill="none" stroke="#7D2A8F" stroke-width="3" stroke-miterlimit="10" d="M24.703,256.449h110.125
		c0,0,27.946-2.174,47.329,18.224l0.124,0.155"/>
	<circle fill="none" stroke="#7D2A8F" stroke-width="3" stroke-miterlimit="10" cx="16.431" cy="256.768" r="8.278"/>
	<circle fill="none" stroke="#7D2A8F" stroke-width="3" stroke-miterlimit="10" cx="1209" cy="287.688" r="8.278"/>
	<g>
		<g>
			
				<line fill="none" stroke="#7D2A8F" stroke-linecap="round" stroke-miterlimit="10" x1="193.188" y1="518.988" x2="192.096" y2="518.988"/>
			
				<line fill="none" stroke="#7D2A8F" stroke-linecap="round" stroke-miterlimit="10" stroke-dasharray="2.4325,2.4325" x1="189.664" y1="518.988" x2="181.149" y2="518.988"/>
			<polyline fill="none" stroke="#7D2A8F" stroke-linecap="round" stroke-miterlimit="10" points="179.934,518.988 178.842,518.988 
				178.842,517.896 			"/>
			
				<line fill="none" stroke="#7D2A8F" stroke-linecap="round" stroke-miterlimit="10" stroke-dasharray="2.2111,2.2111" x1="178.842" y1="515.686" x2="178.842" y2="481.414"/>
			<polyline fill="none" stroke="#7D2A8F" stroke-linecap="round" stroke-miterlimit="10" points="178.842,480.309 178.842,479.217 
				177.75,479.217 			"/>
			
				<line fill="none" stroke="#7D2A8F" stroke-linecap="round" stroke-miterlimit="10" stroke-dasharray="2.2023,2.2023" x1="175.548" y1="479.217" x2="97.367" y2="479.215"/>
			
				<line fill="none" stroke="#7D2A8F" stroke-linecap="round" stroke-miterlimit="10" x1="96.266" y1="479.215" x2="95.174" y2="479.215"/>
		</g>
	</g>
	<g>
		<g>
			
				<line fill="none" stroke="#7D2A8F" stroke-linecap="round" stroke-miterlimit="10" x1="417.625" y1="474.305" x2="418.717" y2="474.305"/>
			
				<line fill="none" stroke="#7D2A8F" stroke-linecap="round" stroke-miterlimit="10" stroke-dasharray="1.9094,1.9094" x1="420.626" y1="474.305" x2="431.127" y2="474.305"/>
			<polyline fill="none" stroke="#7D2A8F" stroke-linecap="round" stroke-miterlimit="10" points="432.082,474.305 433.174,474.305 
				433.174,475.396 			"/>
			
				<line fill="none" stroke="#7D2A8F" stroke-linecap="round" stroke-miterlimit="10" stroke-dasharray="2.0722,2.0722" x1="433.174" y1="477.469" x2="433.174" y2="509.587"/>
			<polyline fill="none" stroke="#7D2A8F" stroke-linecap="round" stroke-miterlimit="10" points="433.174,510.623 433.174,511.715 
				434.266,511.715 			"/>
			
				<line fill="none" stroke="#7D2A8F" stroke-linecap="round" stroke-miterlimit="10" stroke-dasharray="2.1437,2.1437" x1="436.409" y1="511.715" x2="512.51" y2="511.715"/>
			
				<line fill="none" stroke="#7D2A8F" stroke-linecap="round" stroke-miterlimit="10" x1="513.582" y1="511.715" x2="514.674" y2="511.715"/>
		</g>
	</g>
	<g>
		<g>
			
				<line fill="none" stroke="#7D2A8F" stroke-linecap="round" stroke-miterlimit="10" x1="179.167" y1="281.145" x2="178.075" y2="281.145"/>
			
				<line fill="none" stroke="#7D2A8F" stroke-linecap="round" stroke-miterlimit="10" stroke-dasharray="2.5619,2.5619" x1="175.513" y1="281.145" x2="166.546" y2="281.145"/>
			<polyline fill="none" stroke="#7D2A8F" stroke-linecap="round" stroke-miterlimit="10" points="165.266,281.145 164.174,281.145 
				164.174,282.236 			"/>
			
				<line fill="none" stroke="#7D2A8F" stroke-linecap="round" stroke-miterlimit="10" stroke-dasharray="2.2221,2.2221" x1="164.174" y1="284.458" x2="164.174" y2="310.012"/>
			<polyline fill="none" stroke="#7D2A8F" stroke-linecap="round" stroke-miterlimit="10" points="164.174,311.123 164.174,312.215 
				163.082,312.215 			"/>
			
				<line fill="none" stroke="#7D2A8F" stroke-linecap="round" stroke-miterlimit="10" stroke-dasharray="2.1948,2.1948" x1="160.888" y1="312.215" x2="87.363" y2="312.215"/>
			
				<line fill="none" stroke="#7D2A8F" stroke-linecap="round" stroke-miterlimit="10" x1="86.266" y1="312.215" x2="85.174" y2="312.215"/>
		</g>
	</g>
	<g>
		<g>
			
				<line fill="none" stroke="#7D2A8F" stroke-width="1.0916" stroke-linecap="round" stroke-miterlimit="10" x1="401.625" y1="190.445" x2="400.533" y2="190.445"/>
			
				<line fill="none" stroke="#7D2A8F" stroke-width="1.0916" stroke-linecap="round" stroke-miterlimit="10" stroke-dasharray="2.0427,2.0427" x1="398.491" y1="190.445" x2="370.914" y2="190.445"/>
			<polyline fill="none" stroke="#7D2A8F" stroke-width="1.0916" stroke-linecap="round" stroke-miterlimit="10" points="
				369.893,190.445 368.801,190.445 368.801,191.537 			"/>
			
				<line fill="none" stroke="#7D2A8F" stroke-width="1.0916" stroke-linecap="round" stroke-miterlimit="10" stroke-dasharray="2.2699,2.2699" x1="368.801" y1="193.807" x2="368.801" y2="228.99"/>
			<polyline fill="none" stroke="#7D2A8F" stroke-width="1.0916" stroke-linecap="round" stroke-miterlimit="10" points="
				368.801,230.125 368.801,231.217 367.709,231.217 			"/>
			
				<line fill="none" stroke="#7D2A8F" stroke-width="1.0916" stroke-linecap="round" stroke-miterlimit="10" stroke-dasharray="2.1694,2.1694" x1="365.54" y1="231.217" x2="279.85" y2="231.217"/>
			
				<line fill="none" stroke="#7D2A8F" stroke-width="1.0916" stroke-linecap="round" stroke-miterlimit="10" x1="278.766" y1="231.217" x2="277.674" y2="231.217"/>
		</g>
	</g>
	<circle fill="none" stroke="#7D2A8F" stroke-width="1.5" stroke-miterlimit="10" cx="81.539" cy="312.039" r="0.596"/>
	<circle fill="none" stroke="#7D2A8F" stroke-width="1.5" stroke-miterlimit="10" cx="92.083" cy="479.112" r="0.596"/>
	<circle fill="none" stroke="#7D2A8F" stroke-width="1.5" stroke-miterlimit="10" cx="517.5" cy="511.5" r="0.596"/>
	<circle fill="none" stroke="#7D2A8F" stroke-width="1.5" stroke-miterlimit="10" cx="274.42" cy="231.158" r="0.596"/>
	<circle fill="none" stroke="#7D2A8F" stroke-width="1.5" stroke-miterlimit="10" cx="407.596" cy="80.333" r="0.596"/>
	<circle fill="none" stroke="#7D2A8F" stroke-width="1.5" stroke-miterlimit="10" cx="916.023" cy="158.802" r="0.596"/>
	<circle fill="none" stroke="#7D2A8F" stroke-width="1.5" stroke-miterlimit="10" cx="715.667" cy="86.263" r="0.596"/>
	<circle fill="none" stroke="#7D2A8F" stroke-width="1.5" stroke-miterlimit="10" cx="1144.765" cy="357.982" r="0.596"/>
	<circle fill="none" stroke="#7D2A8F" stroke-width="1.5" stroke-miterlimit="10" cx="938.238" cy="486.417" r="0.596"/>
	<circle fill="none" stroke="#7D2A8F" stroke-width="1.5" stroke-miterlimit="10" cx="727.529" cy="273.25" r="0.596"/>
	<g>
		<g>
			
				<line fill="none" stroke="#7D2A8F" stroke-linecap="round" stroke-miterlimit="10" x1="501.688" y1="119.063" x2="501.686" y2="117.971"/>
			
				<line fill="none" stroke="#7D2A8F" stroke-linecap="round" stroke-miterlimit="10" stroke-dasharray="2.235,2.235" x1="501.682" y1="115.736" x2="501.622" y2="81.093"/>
			<polyline fill="none" stroke="#7D2A8F" stroke-linecap="round" stroke-miterlimit="10" points="501.62,79.976 501.618,78.884 
				500.526,78.884 			"/>
			
				<line fill="none" stroke="#7D2A8F" stroke-linecap="round" stroke-miterlimit="10" stroke-dasharray="2.2118,2.2118" x1="498.314" y1="78.884" x2="415.372" y2="78.884"/>
			
				<line fill="none" stroke="#7D2A8F" stroke-linecap="round" stroke-miterlimit="10" x1="414.267" y1="78.884" x2="413.175" y2="78.884"/>
		</g>
	</g>
	<g>
		<g>
			
				<line fill="none" stroke="#7D2A8F" stroke-linecap="round" stroke-miterlimit="10" x1="725.028" y1="273.348" x2="723.937" y2="273.348"/>
			
				<line fill="none" stroke="#7D2A8F" stroke-linecap="round" stroke-miterlimit="10" stroke-dasharray="2.1556,2.1556" x1="721.781" y1="273.348" x2="640.948" y2="273.348"/>
			<polyline fill="none" stroke="#7D2A8F" stroke-linecap="round" stroke-miterlimit="10" points="639.87,273.348 638.778,273.348 
				638.778,274.439 			"/>
			
				<line fill="none" stroke="#7D2A8F" stroke-linecap="round" stroke-miterlimit="10" stroke-dasharray="2.1944,2.1944" x1="638.778" y1="276.634" x2="638.778" y2="380.868"/>
			<polyline fill="none" stroke="#7D2A8F" stroke-linecap="round" stroke-miterlimit="10" points="638.778,381.965 638.778,383.057 
				637.687,383.062 			"/>
			
				<line fill="none" stroke="#7D2A8F" stroke-linecap="round" stroke-miterlimit="10" stroke-dasharray="2.3919,2.3919" x1="635.295" y1="383.073" x2="626.923" y2="383.114"/>
			
				<line fill="none" stroke="#7D2A8F" stroke-linecap="round" stroke-miterlimit="10" x1="625.728" y1="383.12" x2="624.636" y2="383.125"/>
		</g>
	</g>
	<g>
		<g>
			
				<line fill="none" stroke="#7D2A8F" stroke-linecap="round" stroke-miterlimit="10" x1="935.507" y1="486.604" x2="934.415" y2="486.604"/>
			
				<line fill="none" stroke="#7D2A8F" stroke-linecap="round" stroke-miterlimit="10" stroke-dasharray="2.1329,2.1329" x1="932.282" y1="486.604" x2="856.563" y2="486.604"/>
			<polyline fill="none" stroke="#7D2A8F" stroke-linecap="round" stroke-miterlimit="10" points="855.497,486.604 854.405,486.604 
				854.405,485.512 			"/>
			
				<line fill="none" stroke="#7D2A8F" stroke-linecap="round" stroke-miterlimit="10" stroke-dasharray="2.2012,2.2012" x1="854.405" y1="483.311" x2="854.405" y2="308.312"/>
			<polyline fill="none" stroke="#7D2A8F" stroke-linecap="round" stroke-miterlimit="10" points="854.405,307.211 854.405,306.119 
				853.313,306.119 			"/>
			
				<line fill="none" stroke="#7D2A8F" stroke-linecap="round" stroke-miterlimit="10" stroke-dasharray="2.0559,2.0559" x1="851.258" y1="306.12" x2="835.838" y2="306.124"/>
			
				<line fill="none" stroke="#7D2A8F" stroke-linecap="round" stroke-miterlimit="10" x1="834.811" y1="306.125" x2="833.719" y2="306.125"/>
		</g>
	</g>
	<g>
		<g>
			
				<line fill="none" stroke="#7D2A8F" stroke-linecap="round" stroke-miterlimit="10" x1="827.417" y1="49.542" x2="826.325" y2="49.542"/>
			
				<line fill="none" stroke="#7D2A8F" stroke-linecap="round" stroke-miterlimit="10" stroke-dasharray="2.1177,2.1177" x1="824.207" y1="49.542" x2="808.324" y2="49.542"/>
			<polyline fill="none" stroke="#7D2A8F" stroke-linecap="round" stroke-miterlimit="10" points="807.266,49.542 806.174,49.542 
				806.174,50.633 			"/>
			
				<line fill="none" stroke="#7D2A8F" stroke-linecap="round" stroke-miterlimit="10" stroke-dasharray="2.2994,2.2994" x1="806.174" y1="52.933" x2="806.174" y2="83.974"/>
			<polyline fill="none" stroke="#7D2A8F" stroke-linecap="round" stroke-miterlimit="10" points="806.174,85.124 806.174,86.215 
				805.082,86.215 			"/>
			
				<line fill="none" stroke="#7D2A8F" stroke-linecap="round" stroke-miterlimit="10" stroke-dasharray="2.1748,2.1748" x1="802.907" y1="86.215" x2="721.353" y2="86.215"/>
			
				<line fill="none" stroke="#7D2A8F" stroke-linecap="round" stroke-miterlimit="10" x1="720.266" y1="86.215" x2="719.174" y2="86.215"/>
		</g>
	</g>
	<g>
		<g>
			
				<line fill="none" stroke="#7D2A8F" stroke-linecap="round" stroke-miterlimit="10" x1="1020.5" y1="127.844" x2="1019.408" y2="127.844"/>
			
				<line fill="none" stroke="#7D2A8F" stroke-linecap="round" stroke-miterlimit="10" stroke-dasharray="2.162,2.162" x1="1017.247" y1="127.844" x2="1009.68" y2="127.844"/>
			<polyline fill="none" stroke="#7D2A8F" stroke-linecap="round" stroke-miterlimit="10" points="1008.599,127.844 
				1007.507,127.844 1007.507,128.936 			"/>
			
				<line fill="none" stroke="#7D2A8F" stroke-linecap="round" stroke-miterlimit="10" stroke-dasharray="2.2196,2.2196" x1="1007.507" y1="131.155" x2="1007.507" y2="156.68"/>
			<polyline fill="none" stroke="#7D2A8F" stroke-linecap="round" stroke-miterlimit="10" points="1007.507,157.79 
				1007.507,158.881 1006.415,158.881 			"/>
			
				<line fill="none" stroke="#7D2A8F" stroke-linecap="round" stroke-miterlimit="10" stroke-dasharray="2.2175,2.2175" x1="1004.198" y1="158.881" x2="921.041" y2="158.881"/>
			
				<line fill="none" stroke="#7D2A8F" stroke-linecap="round" stroke-miterlimit="10" x1="919.933" y1="158.881" x2="918.841" y2="158.881"/>
		</g>
	</g>
	<circle fill="none" stroke="#7D2A8F" stroke-width="3" stroke-miterlimit="10" cx="409.375" cy="474.121" r="8.276"/>
	<circle fill="none" stroke="#7D2A8F" stroke-width="3" stroke-miterlimit="10" cx="201.419" cy="518.078" r="8.278"/>
	<circle fill="none" stroke="#7D2A8F" stroke-width="3" stroke-miterlimit="10" cx="1028.743" cy="127.635" r="8.278"/>
	<g>
		<g>
			
				<line fill="none" stroke="#7D2A8F" stroke-linecap="round" stroke-miterlimit="10" x1="1086.033" y1="295.813" x2="1086.033" y2="296.904"/>
			
				<line fill="none" stroke="#7D2A8F" stroke-linecap="round" stroke-miterlimit="10" stroke-dasharray="2.2224,2.2224" x1="1086.033" y1="299.127" x2="1086.033" y2="355.797"/>
			<polyline fill="none" stroke="#7D2A8F" stroke-linecap="round" stroke-miterlimit="10" points="1086.033,356.908 1086.033,358 
				1087.125,358 			"/>
			
				<line fill="none" stroke="#7D2A8F" stroke-linecap="round" stroke-miterlimit="10" stroke-dasharray="2.1514,2.1514" x1="1089.276" y1="358" x2="1139.833" y2="358"/>
			<line fill="none" stroke="#7D2A8F" stroke-linecap="round" stroke-miterlimit="10" x1="1140.908" y1="358" x2="1142" y2="358"/>
		</g>
	</g>
	<circle fill="none" stroke="#7D2A8F" stroke-width="3" stroke-miterlimit="10" cx="1086.02" cy="287.688" r="8.277"/>
	<circle fill="none" stroke="#7D2A8F" stroke-width="3" stroke-miterlimit="10" cx="616.32" cy="383.078" r="8.277"/>
	<circle fill="none" stroke="#7D2A8F" stroke-width="3" stroke-miterlimit="10" cx="835.751" cy="49.63" r="8.277"/>
	<circle fill="none" stroke="#7D2A8F" stroke-width="3" stroke-miterlimit="10" cx="825.491" cy="305.936" r="8.276"/>
	<circle fill="none" stroke="#7D2A8F" stroke-width="3" stroke-miterlimit="10" cx="501.577" cy="127.272" r="8.277"/>
	<circle fill="none" stroke="#7D2A8F" stroke-width="3" stroke-miterlimit="10" cx="409.92" cy="190.99" r="8.277"/>
	<circle fill="none" stroke="#7D2A8F" stroke-width="3" stroke-miterlimit="10" cx="187.453" cy="281.326" r="8.278"/>
	<path fill="none" stroke="#7D2A8F" stroke-width="3" stroke-miterlimit="10" d="M1094.297,287.69l0.202,0.052
		c7.564,0,15.284,0,22.969,0l0.25,0.039l16.563-0.063l0.188,0.023c41.317,0,66.239,0,66.239,0"/>
</g>
</svg>
