<?xml version="1.0" encoding="utf-8"?>
<!-- Generator: Adobe Illustrator 16.0.0, SVG Export Plug-In . SVG Version: 6.00 Build 0)  -->
<!DOCTYPE svg PUBLIC "-//W3C//DTD SVG 1.1//EN" "http://www.w3.org/Graphics/SVG/1.1/DTD/svg11.dtd">
<svg version="1.1" class="abs history_line" xmlns="http://www.w3.org/2000/svg" xmlns:xlink="http://www.w3.org/1999/xlink" x="0px" y="0px"
	 width="1236px" height="612px" viewBox="0 0 1236 612" enable-background="new 0 0 1236 612" xml:space="preserve">
<path fill="none" stroke="#7D2A8F" stroke-width="3" stroke-linecap="round" stroke-linejoin="round" stroke-miterlimit="10" d="
	M1201.511,290.187c0.225-4.37,3.841-7.845,8.267-7.845c4.571,0,8.278,3.707,8.278,8.278s-3.707,8.278-8.278,8.278
	s-8.277-3.707-8.277-8.278l-0.271-0.029c0,0-56.222,0-112.26,0s-59.678-61.859-59.678-61.859s0-93.881,0-142.64
	S981.26,29.327,981.26,29.327s-52.396,0-102.611,0S826.25,88.274,826.25,88.274s0,252.533,0,312.937
	c0,60.402-55.312,67.682-55.312,67.682s-43.665,0-102.614,0c-58.948,0-50.942-80.053-50.942-80.053s0-133.909,0-195.769
	s-58.95-62.587-58.95-62.587s-29.107,0-86.602,0s-61.859,62.587-61.859,62.587s0,280.915,0,325.308s-59.675,52.398-59.675,52.398
	s-45.849,0-93.881,0s-55.312-51.67-55.312-51.67s0-107.709,0-186.307s-65.498-73.503-65.498-73.503H25.917l-0.43,0.319
	c0,4.571-3.708,8.278-8.279,8.278c-4.57,0-8.276-3.707-8.276-8.278c0-4.571,3.706-8.278,8.276-8.278
	c4.332,0,7.889,3.329,8.249,7.567"/>
</svg>
