<?xml version="1.0" encoding="utf-8"?>
<!-- Generator: Adobe Illustrator 16.0.0, SVG Export Plug-In . SVG Version: 6.00 Build 0)  -->
<!DOCTYPE svg PUBLIC "-//W3C//DTD SVG 1.1//EN" "http://www.w3.org/Graphics/SVG/1.1/DTD/svg11.dtd">
<svg version="1.1" xmlns="http://www.w3.org/2000/svg" xmlns:xlink="http://www.w3.org/1999/xlink" x="0px" y="0px" width="799px"
	 height="500px" viewBox="0 0 799 500" enable-background="new 0 0 799 500" xml:space="preserve">
<g id="Layer_1" display="none">
	<path display="inline" fill="#EF464F" d="M767.884,316.149V9.31H185.082C10.115,9.31,13.971,181.705,13.971,181.705v308.772
		h580.231C594.203,490.477,767.884,476.322,767.884,316.149z"/>
</g>
<g id="Layer_2">
	<g>
		<defs>
			<path id="SVGID_1_" d="M767.893,315.525V8.686H185.091C10.124,8.686,13.98,181.081,13.98,181.081v308.772h580.232
				C594.212,489.853,767.893,475.698,767.893,315.525z"/>
		</defs>
		<clipPath id="SVGID_2_">
			<use xlink:href="#SVGID_1_"  overflow="visible"/>
		</clipPath>
		<path clip-path="url(#SVGID_2_)" fill="#FEEB5F" d="M8.009,283.687c12.881,14.979,28.293,26.886,47.697,31.989
			c26.269,6.915,47.037,4.177,67.275,25.231c16.426,17.087,30.932,42.637,54.468,50.895c21.194,7.44,46.012-3.912,68.181-1.048
			c35.213,4.538,66.109,28.57,63.067,66.831c-1.509,18.993-6.613,32.403-13.727,42.415H8.009V283.687z"/>
		<path clip-path="url(#SVGID_2_)" fill="#FEEB5F" d="M782.009,6.002c-9.574,23.702-9.365,46.89,8,66.555
			c0.781,0.888,1.582,1.749,2.4,2.593c17.477,18.037,42.537,26.776,59.395,45.362c17.762,19.588,19.959,51.562-3.736,67.671
			c-61.609,41.879-85.305-71.727-140.477-60.062c-17.489,3.698-29.994,20.207-39.986,33.74
			c-16.013,21.682-25.125,56.917-59.181,51.816c-29.534-4.427-55.059-42.365-35.903-68.686c14.031-19.287,43-24.413,55.491-45.84
			c42.27-72.516-122.563-45.856-122.935-97.634c-0.019-2.571,0.221-4.936,0.639-7.154h282.428
			C784.938,0.203,782.407,5.02,782.009,6.002z"/>
	</g>
</g>
<g id="Layer_3" display="none">
	<g display="inline">
		<defs>
			<path id="SVGID_3_" d="M767.392,315.525V8.686H184.59C9.623,8.686,13.479,181.081,13.479,181.081v308.772h580.232
				C593.711,489.853,767.392,475.698,767.392,315.525z"/>
		</defs>
		<clipPath id="SVGID_4_">
			<use xlink:href="#SVGID_3_"  overflow="visible"/>
		</clipPath>
		<g opacity="0.5" clip-path="url(#SVGID_4_)">
			<g>
				<path fill="#DB5D87" d="M188.879,352.927c-1.704,1.703-4.459,1.7-6.159,0c-1.698-1.704-1.706-4.459,0-6.159
					c1.7-1.7,4.455-1.7,6.159,0C190.577,348.468,190.581,351.223,188.879,352.927z"/>
			</g>
			<g>
				<path fill="#DB5D87" d="M198.624,362.67c-1.706,1.704-4.46,1.704-6.155,0.004c-1.702-1.7-1.702-4.455-0.002-6.159
					c1.696-1.698,4.459-1.698,6.157,0.004C200.322,358.215,200.322,360.97,198.624,362.67z"/>
			</g>
			<g>
				<path fill="#DB5D87" d="M208.369,372.417c-1.705,1.704-4.458,1.7-6.161,0c-1.692-1.7-1.696-4.455,0.004-6.159
					c1.698-1.696,4.455-1.696,6.157,0.004C210.073,367.966,210.071,370.717,208.369,372.417z"/>
			</g>
			<g>
				<path fill="#DB5D87" d="M218.12,382.164c-1.704,1.704-4.461,1.704-6.157,0c-1.704-1.7-1.706-4.455-0.004-6.155
					c1.7-1.699,4.453-1.703,6.161,0.002C219.816,377.709,219.816,380.468,218.12,382.164z"/>
			</g>
			<g>
				<path fill="#DB5D87" d="M227.862,391.911c-1.7,1.702-4.457,1.7-6.155,0c-1.702-1.702-1.702-4.451,0-6.155
					c1.702-1.703,4.455-1.703,6.157,0C229.562,387.456,229.565,390.209,227.862,391.911z"/>
			</g>
			<g>
				<path fill="#DB5D87" d="M237.609,401.654c-1.704,1.704-4.456,1.704-6.157,0.004c-1.7-1.7-1.704-4.457,0-6.159
					c1.7-1.699,4.457-1.699,6.157,0.004C239.307,397.199,239.307,399.958,237.609,401.654z"/>
			</g>
			<g>
				<path fill="#DB5D87" d="M179.287,362.52c-1.7,1.699-4.459,1.699-6.161-0.004c-1.702-1.7-1.694-4.459,0.001-6.159
					c1.7-1.7,4.456-1.7,6.157,0C180.982,358.061,180.982,360.812,179.287,362.52z"/>
			</g>
			<g>
				<path fill="#DB5D87" d="M189.03,372.263c-1.696,1.699-4.457,1.699-6.153,0.004c-1.704-1.704-1.704-4.459,0-6.163
					c1.696-1.696,4.457-1.692,6.155,0C190.731,367.804,190.731,370.563,189.03,372.263z"/>
			</g>
			<g>
				<path fill="#DB5D87" d="M198.775,382.01c-1.696,1.696-4.457,1.698-6.153,0c-1.704-1.7-1.704-4.455,0-6.159
					c1.696-1.7,4.457-1.7,6.155,0C200.482,377.555,200.477,380.31,198.775,382.01z"/>
			</g>
			<g>
				<path fill="#DB5D87" d="M208.524,391.761c-1.696,1.695-4.455,1.695-6.157-0.004c-1.696-1.7-1.696-4.461-0.002-6.155
					c1.704-1.7,4.462-1.704,6.161-0.004C210.231,387.296,210.226,390.059,208.524,391.761z"/>
			</g>
			<g>
				<path fill="#DB5D87" d="M218.273,401.506c-1.702,1.697-4.461,1.697-6.155,0.002c-1.704-1.704-1.704-4.463,0-6.163
					c1.698-1.698,4.455-1.705,6.155,0C219.971,397.045,219.971,399.804,218.273,401.506z"/>
			</g>
			<g>
				<path fill="#DB5D87" d="M228.018,411.247c-1.698,1.7-4.457,1.703-6.157,0.006c-1.702-1.702-1.704-4.457-0.004-6.161
					c1.704-1.7,4.462-1.7,6.165,0C229.72,406.796,229.716,409.547,228.018,411.247z"/>
			</g>
			<g>
				<path fill="#DB5D87" d="M169.692,372.111c-1.696,1.698-4.453,1.698-6.157,0c-1.7-1.705-1.7-4.462-0.002-6.166
					c1.702-1.692,4.461-1.692,6.153,0.004C171.394,367.652,171.397,370.412,169.692,372.111z"/>
			</g>
			<g>
				<path fill="#DB5D87" d="M179.443,381.852c-1.706,1.703-4.464,1.703-6.157,0c-1.702-1.692-1.708-4.452,0-6.159
					c1.696-1.692,4.453-1.692,6.157,0.006C181.135,377.397,181.139,380.155,179.443,381.852z"/>
			</g>
			<g>
				<path fill="#DB5D87" d="M189.19,391.597c-1.704,1.701-4.459,1.701-6.161,0.002c-1.696-1.696-1.7-4.455,0-6.151
					c1.702-1.706,4.457-1.704,6.159,0C190.888,387.146,190.886,389.898,189.19,391.597z"/>
			</g>
			<g>
				<path fill="#DB5D87" d="M198.932,401.349c-1.694,1.7-4.456,1.7-6.155,0c-1.7-1.699-1.7-4.458,0-6.158s4.455-1.704,6.159,0.004
					C200.629,396.887,200.635,399.649,198.932,401.349z"/>
			</g>
			<g>
				<path fill="#DB5D87" d="M208.677,411.097c-1.698,1.697-4.456,1.697-6.153,0c-1.702-1.7-1.702-4.459,0-6.157
					c1.698-1.702,4.455-1.704,6.153,0C210.378,406.641,210.38,409.396,208.677,411.097z"/>
			</g>
			<g>
				<path fill="#DB5D87" d="M218.429,420.836c-1.702,1.703-4.459,1.703-6.159,0c-1.7-1.694-1.7-4.455,0-6.155
					c1.7-1.696,4.457-1.696,6.157,0C220.125,416.385,220.125,419.14,218.429,420.836z"/>
			</g>
			<g>
				<path fill="#DB5D87" d="M160.105,381.698c-1.706,1.698-4.458,1.698-6.153,0c-1.711-1.697-1.709-4.461-0.004-6.156
					c1.692-1.7,4.451-1.7,6.157,0C161.807,377.241,161.803,380.001,160.105,381.698z"/>
			</g>
			<g>
				<path fill="#DB5D87" d="M169.845,391.447c-1.694,1.696-4.45,1.696-6.155,0c-1.694-1.703-1.696-4.459,0.004-6.158
					c1.698-1.7,4.457-1.7,6.157,0C171.552,386.986,171.548,389.748,169.845,391.447z"/>
			</g>
			<g>
				<path fill="#DB5D87" d="M179.596,401.19c-1.698,1.704-4.457,1.708-6.157,0c-1.698-1.699-1.698-4.455,0.002-6.156
					c1.694-1.698,4.457-1.702,6.157,0C181.299,396.739,181.292,399.495,179.596,401.19z"/>
			</g>
			<g>
				<path fill="#DB5D87" d="M189.346,410.941c-1.702,1.7-4.458,1.696-6.163-0.007c-1.696-1.698-1.696-4.452,0.002-6.155
					c1.698-1.696,4.459-1.696,6.161,0C191.044,406.482,191.044,409.242,189.346,410.941z"/>
			</g>
			<g>
				<path fill="#DB5D87" d="M199.088,420.688c-1.698,1.696-4.461,1.7-6.157,0c-1.7-1.707-1.7-4.459,0-6.158
					c1.7-1.698,4.459-1.704,6.161-0.004C200.788,416.228,200.788,418.985,199.088,420.688z"/>
			</g>
			<g>
				<path fill="#DB5D87" d="M208.833,430.432c-1.7,1.696-4.453,1.7-6.153,0c-1.704-1.695-1.704-4.459,0-6.158
					c1.7-1.694,4.454-1.7,6.153,0C210.533,425.977,210.533,428.732,208.833,430.432z"/>
			</g>
			<g>
				<path fill="#DB5D87" d="M150.513,391.293c-1.704,1.7-4.455,1.698-6.159-0.008c-1.702-1.696-1.702-4.451,0-6.151
					c1.702-1.703,4.455-1.703,6.163,0C152.212,386.834,152.212,389.589,150.513,391.293z"/>
			</g>
			<g>
				<path fill="#DB5D87" d="M160.258,401.036c-1.702,1.7-4.459,1.7-6.155,0c-1.7-1.7-1.7-4.455,0-6.155
					c1.698-1.703,4.459-1.699,6.157-0.003C161.958,396.577,161.956,399.336,160.258,401.036z"/>
			</g>
			<g>
				<path fill="#DB5D87" d="M169.999,410.783c-1.694,1.704-4.449,1.704-6.153,0c-1.694-1.703-1.702-4.453-0.004-6.155
					c1.702-1.703,4.465-1.699,6.161-0.004C171.71,406.326,171.703,409.08,169.999,410.783z"/>
			</g>
			<g>
				<path fill="#DB5D87" d="M179.752,420.53c-1.698,1.704-4.459,1.7-6.157,0c-1.698-1.7-1.702-4.455,0-6.158
					c1.698-1.7,4.455-1.7,6.153,0C181.454,416.075,181.454,418.83,179.752,420.53z"/>
			</g>
			<g>
				<path fill="#DB5D87" d="M189.499,430.273c-1.7,1.704-4.459,1.704-6.161,0.004c-1.696-1.7-1.696-4.455,0-6.155
					c1.702-1.703,4.461-1.703,6.161-0.004C191.197,425.818,191.197,428.577,189.499,430.273z"/>
			</g>
			<g>
				<path fill="#DB5D87" d="M199.244,440.021c-1.702,1.702-4.455,1.704-6.155,0.004c-1.702-1.7-1.704-4.459,0-6.158
					c1.7-1.696,4.453-1.7,6.157,0C200.946,435.565,200.942,438.324,199.244,440.021z"/>
			</g>
			<g>
				<path fill="#DB5D87" d="M140.922,400.886c-1.702,1.699-4.457,1.696-6.157-0.004c-1.704-1.7-1.704-4.455,0-6.159
					c1.694-1.703,4.453-1.698,6.155,0.004C142.618,396.427,142.624,399.182,140.922,400.886z"/>
			</g>
			<g>
				<path fill="#DB5D87" d="M150.666,410.629c-1.7,1.7-4.456,1.7-6.157-0.004c-1.696-1.696-1.698-4.455,0-6.155
					c1.704-1.699,4.459-1.696,6.153,0C152.363,406.17,152.367,408.925,150.666,410.629z"/>
			</g>
			<g>
				<path fill="#DB5D87" d="M160.414,420.372c-1.704,1.704-4.459,1.7-6.159,0.004c-1.7-1.7-1.702-4.459,0-6.161
					c1.7-1.701,4.455-1.694,6.159,0.002C162.106,415.917,162.112,418.672,160.414,420.372z"/>
			</g>
			<g>
				<path fill="#DB5D87" d="M170.163,430.123c-1.7,1.698-4.459,1.698-6.159,0c-1.7-1.704-1.7-4.455,0-6.159
					c1.698-1.699,4.453-1.696,6.157,0.004C171.859,425.668,171.865,428.419,170.163,430.123z"/>
			</g>
			<g>
				<path fill="#DB5D87" d="M179.908,439.866c-1.702,1.7-4.46,1.7-6.153,0.004c-1.708-1.706-1.708-4.459-0.004-6.159
					c1.698-1.699,4.451-1.699,6.161,0C181.604,435.411,181.606,438.166,179.908,439.866z"/>
			</g>
			<g>
				<path fill="#DB5D87" d="M189.652,449.613c-1.702,1.704-4.457,1.704-6.153,0c-1.706-1.7-1.702-4.455-0.002-6.159
					c1.702-1.699,4.457-1.695,6.155,0.004C191.352,445.158,191.352,447.913,189.652,449.613z"/>
			</g>
		</g>
		<g opacity="0.5" clip-path="url(#SVGID_4_)">
			<path fill="#DB5D87" d="M599.873,381.655c-2.145,0-4.16-0.838-5.676-2.351c-1.518-1.515-2.351-3.53-2.351-5.675
				c0-2.143,0.833-4.161,2.351-5.674l83.496-83.498c3.13-3.129,8.221-3.129,11.352,0c1.514,1.514,2.352,3.528,2.352,5.675
				c0,2.143-0.838,4.159-2.352,5.67l-83.5,83.502C604.029,380.817,602.014,381.655,599.873,381.655z M683.369,284.115
				c-1.542,0-3.082,0.589-4.256,1.762l-83.498,83.499c-1.136,1.136-1.763,2.647-1.763,4.254s0.627,3.12,1.763,4.256
				c2.274,2.274,6.236,2.274,8.511,0l83.499-83.499c1.137-1.136,1.764-2.647,1.764-4.254s-0.627-3.12-1.764-4.256
				C686.453,284.704,684.91,284.115,683.369,284.115z"/>
		</g>
		<g opacity="0.5" clip-path="url(#SVGID_4_)">
			<path fill="#DB5D87" d="M607.227,358.152c-1.795,0-3.594-0.686-4.967-2.053c-2.74-2.742-2.74-7.188,0-9.929l83.498-83.499
				c2.744-2.741,7.189-2.741,9.933,0c2.74,2.74,2.74,7.188,0,9.928l-83.496,83.5C610.819,357.467,609.025,358.152,607.227,358.152z"
				/>
		</g>
		<path opacity="0.5" clip-path="url(#SVGID_4_)" fill="#DB5D87" d="M111.144,284.969c0,21.138-17.133,38.271-38.267,38.271
			c-21.137,0-38.27-17.134-38.27-38.271c0-21.134,17.133-38.267,38.27-38.267C94.011,246.702,111.144,263.835,111.144,284.969z"/>
		<g opacity="0.5" clip-path="url(#SVGID_4_)">
			<g>
				<path fill="#DB5D87" d="M67.508,178.301c1.131,2.842,2.465,5.575,3.986,8.19l22.797,22.8c2.616,1.519,5.353,2.854,8.189,3.988
					L67.508,178.301z"/>
			</g>
			<g>
				<path fill="#DB5D87" d="M63.223,159.742c0.119,1.587,0.281,3.162,0.512,4.711l52.599,52.599
					c1.549,0.232,3.125,0.392,4.709,0.509L63.223,159.742z"/>
			</g>
			<g>
				<path fill="#DB5D87" d="M63.699,145.935c-0.181,1.244-0.318,2.505-0.424,3.775l67.8,67.802c1.27-0.105,2.531-0.241,3.776-0.426
					L63.699,145.935z"/>
			</g>
			<g>
				<path fill="#DB5D87" d="M66.507,134.458c-0.364,1.052-0.701,2.115-1.012,3.192l77.645,77.638
					c1.072-0.309,2.133-0.645,3.187-1.01L66.507,134.458z"/>
			</g>
			<g>
				<path fill="#DB5D87" d="M70.923,124.594c-0.503,0.904-0.986,1.822-1.445,2.755l83.96,83.96c0.929-0.46,1.849-0.944,2.753-1.447
					L70.923,124.594z"/>
			</g>
			<g>
				<path fill="#DB5D87" d="M76.654,116.046c-0.62,0.78-1.225,1.579-1.807,2.39l87.505,87.505c0.811-0.584,1.607-1.188,2.39-1.81
					L76.654,116.046z"/>
			</g>
			<g>
				<path fill="#DB5D87" d="M83.548,108.658c-0.731,0.663-1.447,1.349-2.15,2.05l88.683,88.681c0.699-0.701,1.382-1.421,2.049-2.152
					L83.548,108.658z"/>
			</g>
			<g>
				<path fill="#DB5D87" d="M91.621,102.446c-0.846,0.55-1.675,1.118-2.495,1.708l87.509,87.505
					c0.588-0.818,1.155-1.647,1.706-2.496L91.621,102.446z"/>
			</g>
			<g>
				<path fill="#DB5D87" d="M100.912,97.458c-0.97,0.417-1.926,0.861-2.868,1.329L182,182.743c0.465-0.944,0.91-1.902,1.327-2.871
					L100.912,97.458z"/>
			</g>
			<g>
				<path fill="#DB5D87" d="M111.681,93.943c-1.127,0.26-2.241,0.542-3.339,0.863l77.639,77.637
					c0.317-1.101,0.605-2.214,0.861-3.339L111.681,93.943z"/>
			</g>
			<g>
				<path fill="#DB5D87" d="M124.398,92.375c-1.346,0.027-2.678,0.096-3.997,0.209l67.802,67.802
					c0.111-1.323,0.179-2.654,0.209-3.996L124.398,92.375z"/>
			</g>
			<g>
				<path fill="#DB5D87" d="M140.379,94.079c-1.723-0.413-3.462-0.769-5.235-1.037l52.595,52.599
					c-0.266-1.771-0.618-3.517-1.033-5.235L140.379,94.079z"/>
			</g>
			<g>
				<path fill="#DB5D87" d="M157.188,100.807l22.792,22.792C174.496,114.161,166.626,106.291,157.188,100.807z"/>
			</g>
		</g>
		<path opacity="0.5" clip-path="url(#SVGID_4_)" fill="#DB5D87" d="M54.131,430.27c0,9.314-7.555,16.875-16.873,16.875
			c-9.323,0-16.876-7.561-16.876-16.875c0-9.32,7.553-16.874,16.876-16.874C46.576,413.396,54.131,420.949,54.131,430.27z"/>
		<path opacity="0.5" clip-path="url(#SVGID_4_)" fill="#DB5D87" d="M48.734,454.89c-9.97,0-18.079-8.107-18.079-18.074
			c0-9.968,8.109-18.075,18.079-18.075c9.964,0,18.077,8.107,18.077,18.075C66.811,446.782,58.698,454.89,48.734,454.89z
			 M48.734,421.145c-8.643,0-15.672,7.03-15.672,15.671s7.03,15.67,15.672,15.67c8.639,0,15.668-7.029,15.668-15.67
			S57.373,421.145,48.734,421.145z"/>
		<polygon opacity="0.5" clip-path="url(#SVGID_4_)" fill="#DB5D87" points="449.133,145.807 487.062,183.736 508.929,123.942 		"/>
		<path opacity="0.5" clip-path="url(#SVGID_4_)" fill="#DB5D87" d="M495.086,178.38l-40.598-40.596l64-23.404L495.086,178.38z
			 M458.857,138.748l35.265,35.264l20.331-55.593L458.857,138.748z"/>
		<g opacity="0.5" clip-path="url(#SVGID_4_)">
			<polygon fill="#DB5D87" points="655.791,214.892 683.66,169.063 630.791,168.298 			"/>
			<path fill="#DB5D87" d="M643.72,210.537l-26.961-50.249l57.017,0.822L643.72,210.537z M620.814,162.753l23.037,42.938
				l25.684-42.237L620.814,162.753z"/>
		</g>
		<g opacity="0.5" clip-path="url(#SVGID_4_)">
			<g>
				<path fill="#DB5D87" d="M219.933,278.738l0.002-14.783c0-1.053,0.409-2.045,1.155-2.791c0.748-0.748,1.739-1.159,2.797-1.159
					h14.783c1.051,0,2.046,0.411,2.793,1.153c0.746,0.752,1.153,1.744,1.153,2.797v14.783c0,2.141-1.81,3.95-3.946,3.95h-14.783
					c-1.059,0-2.052-0.411-2.797-1.157C220.357,280.8,219.933,279.778,219.933,278.738z M239.009,263.955
					c0-0.09-0.038-0.181-0.1-0.241c-0.064-0.065-0.147-0.1-0.239-0.1h-14.783c-0.125,0-0.206,0.063-0.241,0.104
					c-0.045,0.042-0.1,0.121-0.1,0.237l-0.004,14.783c0,0.089,0.04,0.173,0.104,0.241c0.064,0.063,0.149,0.1,0.241,0.1h14.783
					c0.141,0,0.339-0.198,0.339-0.341V263.955z"/>
			</g>
			<g>
				<path fill="#DB5D87" d="M208.592,290.081v-14.784c0-1.054,0.413-2.047,1.157-2.789c0.744-0.752,1.737-1.161,2.795-1.161h14.786
					c1.05,0,2.045,0.409,2.791,1.157c0.745,0.746,1.155,1.739,1.155,2.793v14.784c0,2.14-1.807,3.948-3.946,3.948h-14.786
					c-1.058,0-2.051-0.41-2.795-1.157C209.016,292.138,208.592,291.12,208.592,290.081z M227.669,275.297
					c0-0.089-0.04-0.177-0.104-0.241c-0.063-0.064-0.145-0.1-0.236-0.1h-14.786c-0.126,0-0.206,0.062-0.241,0.1
					c-0.045,0.045-0.102,0.124-0.102,0.241v14.784c0,0.089,0.038,0.176,0.102,0.239c0.066,0.066,0.148,0.103,0.241,0.103h14.786
					c0.14,0,0.339-0.2,0.339-0.342V275.297z"/>
			</g>
		</g>
		<g opacity="0.5" clip-path="url(#SVGID_4_)">
			<g>
				<path fill="#DB5D87" d="M495.452,55.17l0.001-14.783c0-1.056,0.409-2.05,1.155-2.793c0.747-0.75,1.74-1.161,2.797-1.161h14.781
					c1.056,0,2.049,0.411,2.795,1.157c0.744,0.747,1.153,1.741,1.153,2.793V55.17c0,2.141-1.807,3.946-3.948,3.946h-14.781
					c-1.059,0-2.054-0.411-2.797-1.157C495.874,57.224,495.452,56.206,495.452,55.17z M514.53,40.383
					c0-0.088-0.038-0.177-0.102-0.241s-0.149-0.098-0.241-0.098h-14.781c-0.126,0-0.206,0.064-0.243,0.098
					c-0.043,0.049-0.098,0.125-0.098,0.245l-0.001,14.783c0,0.086,0.038,0.173,0.1,0.241c0.066,0.062,0.151,0.098,0.243,0.098
					h14.781c0.147,0,0.343-0.2,0.343-0.339V40.383z"/>
			</g>
			<g>
				<path fill="#DB5D87" d="M484.108,66.511l0.006-14.783c0-1.055,0.407-2.047,1.149-2.793c0.75-0.75,1.745-1.157,2.799-1.157
					h14.781c1.057,0,2.05,0.407,2.795,1.153c0.748,0.75,1.155,1.742,1.155,2.797v14.783c0,2.141-1.808,3.95-3.95,3.95h-14.781
					c-1.056,0-2.052-0.411-2.799-1.161C484.533,68.569,484.108,67.548,484.108,66.511z M503.186,51.729
					c0-0.094-0.036-0.181-0.102-0.245c-0.062-0.064-0.147-0.098-0.241-0.098h-14.781c-0.126,0-0.206,0.064-0.243,0.102
					c-0.043,0.042-0.098,0.125-0.098,0.241l-0.003,14.783c0,0.086,0.038,0.175,0.102,0.241c0.066,0.062,0.151,0.098,0.243,0.098
					h14.781c0.143,0,0.343-0.196,0.343-0.339V51.729z"/>
			</g>
		</g>
		<g opacity="0.5" clip-path="url(#SVGID_4_)">
			<path fill="#DB5D87" d="M376.77,436.685l-58.842-58.846l0.778-0.782c16.225-16.223,42.622-16.223,58.844,0
				c7.863,7.862,12.189,18.311,12.189,29.426s-4.327,21.567-12.189,29.423L376.77,436.685z M321.058,377.849l55.701,55.706
				c6.956-7.348,10.771-16.916,10.771-27.072c0-10.523-4.099-20.421-11.541-27.861C360.889,363.518,336.479,363.264,321.058,377.849
				z"/>
		</g>
		<g opacity="0.5" clip-path="url(#SVGID_4_)">
			<polygon fill="#DB5D87" points="354.408,77.879 318.352,113.935 318.352,77.879 			"/>
			<polygon fill="#DB5D87" points="320.924,127.617 356.982,91.558 356.982,127.617 			"/>
			
				<rect x="353.205" y="7.065" transform="matrix(0.7067 0.7075 -0.7075 0.7067 159.0483 -227.9065)" fill="#DB5D87" width="2.408" height="141.629"/>
			
				<rect x="329.442" y="69.166" transform="matrix(0.707 0.7072 -0.7072 0.707 180.2546 -199.2918)" fill="#DB5D87" width="2.407" height="97.461"/>
		</g>
		<rect x="321.589" y="219.641" opacity="0.5" clip-path="url(#SVGID_4_)" fill="#DB5D87" width="53.82" height="53.822"/>
		<path opacity="0.5" clip-path="url(#SVGID_4_)" fill="#DB5D87" d="M386.236,265.041h-56.225v-56.229h56.225V265.041z
			 M332.417,262.636h51.415v-51.415h-51.415V262.636z"/>
		<path opacity="0.5" clip-path="url(#SVGID_4_)" fill="#DB5D87" d="M517.769,449.429c-26.556,0-48.164-21.604-48.164-48.162
			s21.608-48.163,48.164-48.163c26.559,0,48.165,21.605,48.165,48.163S544.328,449.429,517.769,449.429z M517.769,355.509
			c-25.231,0-45.758,20.526-45.758,45.758c0,25.23,20.527,45.758,45.758,45.758c25.233,0,45.758-20.527,45.758-45.758
			C563.527,376.035,543.002,355.509,517.769,355.509z"/>
		<g opacity="0.5" clip-path="url(#SVGID_4_)">
			<g>
				<path fill="#DB5D87" d="M213.512,25.364c-21.562,0-39.1-17.54-39.1-39.098c0-21.558,17.538-39.099,39.1-39.099
					c21.558,0,39.097,17.541,39.097,39.099C252.608,7.824,235.069,25.364,213.512,25.364z M213.512-48.02
					c-18.907,0-34.289,15.38-34.289,34.286s15.382,34.286,34.289,34.286c18.903,0,34.284-15.38,34.284-34.286
					S232.415-48.02,213.512-48.02z"/>
			</g>
		</g>
		<g opacity="0.5" clip-path="url(#SVGID_4_)">
			<g>
				<path fill="#DB5D87" d="M213.512,13.582c-15.062,0-27.313-12.254-27.313-27.315s12.251-27.313,27.313-27.313
					c15.058,0,27.316,12.251,27.316,27.313S228.569,13.582,213.512,13.582z M213.512-36.237c-12.409,0-22.5,10.095-22.5,22.503
					s10.092,22.504,22.5,22.504c12.409,0,22.505-10.096,22.505-22.504S225.921-36.237,213.512-36.237z"/>
			</g>
		</g>
		<g opacity="0.5" clip-path="url(#SVGID_4_)">
			<g>
				<path fill="#DB5D87" d="M213.512,36.901c-27.92,0-50.635-22.715-50.635-50.635c0-27.922,22.715-50.637,50.635-50.637
					c27.918,0,50.633,22.715,50.633,50.637C264.145,14.187,241.43,36.901,213.512,36.901z M213.512-59.559
					c-25.269,0-45.824,20.557-45.824,45.825c0,25.265,20.555,45.822,45.824,45.822c25.267,0,45.823-20.557,45.823-45.822
					C259.335-39.001,238.778-59.559,213.512-59.559z"/>
			</g>
		</g>
		<g opacity="0.5" clip-path="url(#SVGID_4_)">
			<g>
				<path fill="#DB5D87" d="M213.512,47.73c-33.889,0-61.462-27.571-61.462-61.464c0-33.893,27.573-61.463,61.462-61.463
					c33.89,0,61.462,27.57,61.462,61.463C274.974,20.159,247.401,47.73,213.512,47.73z M213.512-70.385
					c-31.237,0-56.651,25.416-56.651,56.651c0,31.235,25.414,56.651,56.651,56.651c31.238,0,56.65-25.416,56.65-56.651
					C270.162-44.97,244.75-70.385,213.512-70.385z"/>
			</g>
		</g>
		<g opacity="0.5" clip-path="url(#SVGID_4_)">
			<g>
				<path fill="#DB5D87" d="M213.512,58.555c-39.861,0-72.289-32.43-72.289-72.289c0-39.86,32.428-72.29,72.289-72.29
					c39.858,0,72.288,32.43,72.288,72.29C285.8,26.125,253.37,58.555,213.512,58.555z M213.512-81.213
					c-37.208,0-67.48,30.272-67.48,67.479c0,37.206,30.272,67.478,67.48,67.478c37.207,0,67.476-30.272,67.476-67.478
					C280.987-50.941,250.719-81.213,213.512-81.213z"/>
			</g>
		</g>
		<g opacity="0.5" clip-path="url(#SVGID_4_)">
			<path fill="#DB5D87" d="M319.273,450.209c15.819,15.815,41.466,15.819,57.284,0.004l-57.284-57.292
				C303.456,408.744,303.456,434.392,319.273,450.209z"/>
		</g>
		<path opacity="0.5" clip-path="url(#SVGID_4_)" fill="#DB5D87" d="M555.797,286.904c0,21.987-17.823,39.815-39.814,39.815
			c-21.987,0-39.812-17.828-39.812-39.815s17.824-39.812,39.812-39.812C537.974,247.093,555.797,264.917,555.797,286.904z"/>
		<path opacity="0.5" clip-path="url(#SVGID_4_)" fill="#DB5D87" d="M54.904,316.316c-0.433,0-0.865-0.166-1.195-0.495
			c-0.66-0.66-0.66-1.729,0-2.388l46.849-46.848c0.66-0.663,1.728-0.663,2.388,0c0.66,0.656,0.66,1.727,0,2.386l-46.849,46.85
			C55.767,316.15,55.335,316.316,54.904,316.316z"/>
		<polygon opacity="0.5" clip-path="url(#SVGID_4_)" fill="#DB5D87" points="495.981,301.698 467.828,329.852 451.596,285.468 		"/>
		<circle opacity="0.5" clip-path="url(#SVGID_4_)" fill="#DB5D87" cx="472.384" cy="382.119" r="25.302"/>
	</g>
</g>
<g id="Layer_4" display="none">
	<g display="inline">
		<defs>
			<path id="SVGID_5_" d="M767.392,316.525V9.686H184.59C9.623,9.686,13.479,182.08,13.479,182.08v308.772h580.232
				C593.711,490.853,767.392,476.698,767.392,316.525z"/>
		</defs>
		<clipPath id="SVGID_6_">
			<use xlink:href="#SVGID_5_"  overflow="visible"/>
		</clipPath>
		<g clip-path="url(#SVGID_6_)">
			<g opacity="0.5">
				<g>
					<path fill="#DB5D87" d="M188.879,353.927c-1.704,1.703-4.459,1.7-6.159,0c-1.698-1.704-1.706-4.459,0-6.159
						c1.7-1.7,4.455-1.7,6.159,0C190.577,349.468,190.581,352.223,188.879,353.927z"/>
				</g>
				<g>
					<path fill="#DB5D87" d="M198.624,363.67c-1.706,1.704-4.46,1.704-6.155,0.004c-1.702-1.7-1.702-4.455-0.002-6.159
						c1.696-1.698,4.459-1.698,6.157,0.004C200.322,359.215,200.322,361.97,198.624,363.67z"/>
				</g>
				<g>
					<path fill="#DB5D87" d="M208.369,373.417c-1.705,1.704-4.458,1.7-6.161,0c-1.692-1.7-1.696-4.455,0.004-6.159
						c1.698-1.696,4.455-1.696,6.157,0.004C210.073,368.966,210.071,371.717,208.369,373.417z"/>
				</g>
				<g>
					<path fill="#DB5D87" d="M218.12,383.164c-1.704,1.704-4.461,1.704-6.157,0c-1.704-1.7-1.706-4.455-0.004-6.155
						c1.7-1.699,4.453-1.703,6.161,0.002C219.816,378.709,219.816,381.468,218.12,383.164z"/>
				</g>
				<g>
					<path fill="#DB5D87" d="M227.862,392.911c-1.7,1.702-4.457,1.7-6.155,0c-1.702-1.702-1.702-4.451,0-6.155
						c1.702-1.703,4.455-1.703,6.157,0C229.562,388.456,229.565,391.209,227.862,392.911z"/>
				</g>
				<g>
					<path fill="#DB5D87" d="M237.609,402.654c-1.704,1.704-4.456,1.704-6.157,0.004c-1.7-1.7-1.704-4.457,0-6.159
						c1.7-1.699,4.457-1.699,6.157,0.004C239.307,398.199,239.307,400.958,237.609,402.654z"/>
				</g>
				<g>
					<path fill="#DB5D87" d="M179.287,363.52c-1.7,1.699-4.459,1.699-6.161-0.004c-1.702-1.7-1.694-4.459,0.001-6.159
						c1.7-1.7,4.456-1.7,6.157,0C180.982,359.061,180.982,361.812,179.287,363.52z"/>
				</g>
				<g>
					<path fill="#DB5D87" d="M189.03,373.263c-1.696,1.699-4.457,1.699-6.153,0.004c-1.704-1.704-1.704-4.459,0-6.163
						c1.696-1.696,4.457-1.692,6.155,0C190.731,368.804,190.731,371.563,189.03,373.263z"/>
				</g>
				<g>
					<path fill="#DB5D87" d="M198.775,383.01c-1.696,1.696-4.457,1.698-6.153,0c-1.704-1.7-1.704-4.455,0-6.159
						c1.696-1.7,4.457-1.7,6.155,0C200.482,378.555,200.477,381.31,198.775,383.01z"/>
				</g>
				<g>
					<path fill="#DB5D87" d="M208.524,392.761c-1.696,1.695-4.455,1.695-6.157-0.004c-1.696-1.7-1.696-4.461-0.002-6.155
						c1.704-1.7,4.462-1.704,6.161-0.004C210.231,388.296,210.226,391.059,208.524,392.761z"/>
				</g>
				<g>
					<path fill="#DB5D87" d="M218.273,402.506c-1.702,1.697-4.461,1.697-6.155,0.002c-1.704-1.704-1.704-4.463,0-6.163
						c1.698-1.698,4.455-1.705,6.155,0C219.971,398.045,219.971,400.804,218.273,402.506z"/>
				</g>
				<g>
					<path fill="#DB5D87" d="M228.018,412.247c-1.698,1.7-4.457,1.703-6.157,0.006c-1.702-1.702-1.704-4.457-0.004-6.161
						c1.704-1.7,4.462-1.7,6.165,0C229.72,407.796,229.716,410.547,228.018,412.247z"/>
				</g>
				<g>
					<path fill="#DB5D87" d="M169.692,373.111c-1.696,1.698-4.453,1.698-6.157,0c-1.7-1.705-1.7-4.462-0.002-6.166
						c1.702-1.692,4.461-1.692,6.153,0.004C171.394,368.652,171.397,371.412,169.692,373.111z"/>
				</g>
				<g>
					<path fill="#DB5D87" d="M179.443,382.852c-1.706,1.703-4.464,1.703-6.157,0c-1.702-1.692-1.708-4.452,0-6.159
						c1.696-1.692,4.453-1.692,6.157,0.006C181.135,378.397,181.139,381.155,179.443,382.852z"/>
				</g>
				<g>
					<path fill="#DB5D87" d="M189.19,392.597c-1.704,1.701-4.459,1.701-6.161,0.002c-1.696-1.696-1.7-4.455,0-6.151
						c1.702-1.706,4.457-1.704,6.159,0C190.888,388.146,190.886,390.898,189.19,392.597z"/>
				</g>
				<g>
					<path fill="#DB5D87" d="M198.932,402.349c-1.694,1.7-4.456,1.7-6.155,0c-1.7-1.699-1.7-4.458,0-6.158s4.455-1.704,6.159,0.004
						C200.629,397.887,200.635,400.649,198.932,402.349z"/>
				</g>
				<g>
					<path fill="#DB5D87" d="M208.677,412.097c-1.698,1.697-4.456,1.697-6.153,0c-1.702-1.7-1.702-4.459,0-6.157
						c1.698-1.702,4.455-1.704,6.153,0C210.378,407.641,210.38,410.396,208.677,412.097z"/>
				</g>
				<g>
					<path fill="#DB5D87" d="M218.429,421.836c-1.702,1.703-4.459,1.703-6.159,0c-1.7-1.694-1.7-4.455,0-6.155
						c1.7-1.696,4.457-1.696,6.157,0C220.125,417.385,220.125,420.14,218.429,421.836z"/>
				</g>
				<g>
					<path fill="#DB5D87" d="M160.105,382.698c-1.706,1.698-4.458,1.698-6.153,0c-1.711-1.697-1.709-4.461-0.004-6.156
						c1.692-1.7,4.451-1.7,6.157,0C161.807,378.241,161.803,381.001,160.105,382.698z"/>
				</g>
				<g>
					<path fill="#DB5D87" d="M169.845,392.447c-1.694,1.696-4.45,1.696-6.155,0c-1.694-1.703-1.696-4.459,0.004-6.158
						c1.698-1.7,4.457-1.7,6.157,0C171.552,387.986,171.548,390.748,169.845,392.447z"/>
				</g>
				<g>
					<path fill="#DB5D87" d="M179.596,402.19c-1.698,1.704-4.457,1.708-6.157,0c-1.698-1.699-1.698-4.455,0.002-6.156
						c1.694-1.698,4.457-1.702,6.157,0C181.299,397.739,181.292,400.495,179.596,402.19z"/>
				</g>
				<g>
					<path fill="#DB5D87" d="M189.346,411.941c-1.702,1.7-4.458,1.696-6.163-0.007c-1.696-1.698-1.696-4.452,0.002-6.155
						c1.698-1.696,4.459-1.696,6.161,0C191.044,407.482,191.044,410.242,189.346,411.941z"/>
				</g>
				<g>
					<path fill="#DB5D87" d="M199.088,421.688c-1.698,1.696-4.461,1.7-6.157,0c-1.7-1.707-1.7-4.459,0-6.158
						c1.7-1.698,4.459-1.704,6.161-0.004C200.788,417.228,200.788,419.985,199.088,421.688z"/>
				</g>
				<g>
					<path fill="#DB5D87" d="M208.833,431.432c-1.7,1.696-4.453,1.7-6.153,0c-1.704-1.695-1.704-4.459,0-6.158
						c1.7-1.694,4.454-1.7,6.153,0C210.533,426.977,210.533,429.732,208.833,431.432z"/>
				</g>
				<g>
					<path fill="#DB5D87" d="M150.513,392.293c-1.704,1.7-4.455,1.698-6.159-0.008c-1.702-1.696-1.702-4.451,0-6.151
						c1.702-1.703,4.455-1.703,6.163,0C152.212,387.834,152.212,390.589,150.513,392.293z"/>
				</g>
				<g>
					<path fill="#DB5D87" d="M160.258,402.036c-1.702,1.7-4.459,1.7-6.155,0c-1.7-1.7-1.7-4.455,0-6.155
						c1.698-1.703,4.459-1.699,6.157-0.003C161.958,397.577,161.956,400.336,160.258,402.036z"/>
				</g>
				<g>
					<path fill="#DB5D87" d="M169.999,411.783c-1.694,1.704-4.449,1.704-6.153,0c-1.694-1.703-1.702-4.453-0.004-6.155
						c1.702-1.703,4.465-1.699,6.161-0.004C171.71,407.326,171.703,410.08,169.999,411.783z"/>
				</g>
				<g>
					<path fill="#DB5D87" d="M179.752,421.53c-1.698,1.704-4.459,1.7-6.157,0c-1.698-1.7-1.702-4.455,0-6.158
						c1.698-1.7,4.455-1.7,6.153,0C181.454,417.075,181.454,419.83,179.752,421.53z"/>
				</g>
				<g>
					<path fill="#DB5D87" d="M189.499,431.273c-1.7,1.704-4.459,1.704-6.161,0.004c-1.696-1.7-1.696-4.455,0-6.155
						c1.702-1.703,4.461-1.703,6.161-0.004C191.197,426.818,191.197,429.577,189.499,431.273z"/>
				</g>
				<g>
					<path fill="#DB5D87" d="M199.244,441.021c-1.702,1.702-4.455,1.704-6.155,0.004c-1.702-1.7-1.704-4.459,0-6.158
						c1.7-1.696,4.453-1.7,6.157,0C200.946,436.565,200.942,439.324,199.244,441.021z"/>
				</g>
				<g>
					<path fill="#DB5D87" d="M140.922,401.886c-1.702,1.699-4.457,1.696-6.157-0.004c-1.704-1.7-1.704-4.455,0-6.159
						c1.694-1.703,4.453-1.698,6.155,0.004C142.618,397.427,142.624,400.182,140.922,401.886z"/>
				</g>
				<g>
					<path fill="#DB5D87" d="M150.666,411.629c-1.7,1.7-4.456,1.7-6.157-0.004c-1.696-1.696-1.698-4.455,0-6.155
						c1.704-1.699,4.459-1.696,6.153,0C152.363,407.17,152.367,409.925,150.666,411.629z"/>
				</g>
				<g>
					<path fill="#DB5D87" d="M160.414,421.372c-1.704,1.704-4.459,1.7-6.159,0.004c-1.7-1.7-1.702-4.459,0-6.161
						c1.7-1.701,4.455-1.694,6.159,0.002C162.106,416.917,162.112,419.672,160.414,421.372z"/>
				</g>
				<g>
					<path fill="#DB5D87" d="M170.163,431.123c-1.7,1.698-4.459,1.698-6.159,0c-1.7-1.704-1.7-4.455,0-6.159
						c1.698-1.699,4.453-1.696,6.157,0.004C171.859,426.668,171.865,429.419,170.163,431.123z"/>
				</g>
				<g>
					<path fill="#DB5D87" d="M179.908,440.866c-1.702,1.7-4.46,1.7-6.153,0.004c-1.708-1.706-1.708-4.459-0.004-6.159
						c1.698-1.699,4.451-1.699,6.161,0C181.604,436.411,181.606,439.166,179.908,440.866z"/>
				</g>
				<g>
					<path fill="#DB5D87" d="M189.652,450.613c-1.702,1.704-4.457,1.704-6.153,0c-1.706-1.7-1.702-4.455-0.002-6.159
						c1.702-1.699,4.457-1.695,6.155,0.004C191.352,446.158,191.352,448.913,189.652,450.613z"/>
				</g>
			</g>
			<g opacity="0.5">
				<path fill="#DB5D87" d="M599.873,382.655c-2.145,0-4.16-0.838-5.676-2.351c-1.518-1.515-2.351-3.53-2.351-5.675
					c0-2.143,0.833-4.161,2.351-5.674l83.496-83.498c3.13-3.129,8.221-3.129,11.352,0c1.514,1.514,2.352,3.528,2.352,5.675
					c0,2.143-0.838,4.159-2.352,5.67l-83.5,83.502C604.029,381.817,602.014,382.655,599.873,382.655z M683.369,285.115
					c-1.542,0-3.082,0.589-4.256,1.762l-83.498,83.499c-1.136,1.136-1.763,2.647-1.763,4.254s0.627,3.12,1.763,4.256
					c2.274,2.274,6.236,2.274,8.511,0l83.499-83.499c1.137-1.136,1.764-2.647,1.764-4.254s-0.627-3.12-1.764-4.256
					C686.453,285.704,684.91,285.115,683.369,285.115z"/>
			</g>
			<g opacity="0.5">
				<path fill="#DB5D87" d="M607.227,359.152c-1.795,0-3.594-0.686-4.967-2.053c-2.74-2.742-2.74-7.188,0-9.929l83.498-83.499
					c2.744-2.741,7.189-2.741,9.933,0c2.74,2.74,2.74,7.188,0,9.928l-83.496,83.5C610.819,358.467,609.025,359.152,607.227,359.152z
					"/>
			</g>
			<path opacity="0.5" fill="#DB5D87" d="M111.144,285.969c0,21.138-17.133,38.271-38.267,38.271
				c-21.137,0-38.27-17.134-38.27-38.271c0-21.134,17.133-38.267,38.27-38.267C94.011,247.702,111.144,264.835,111.144,285.969z"/>
			<g opacity="0.5">
				<g>
					<path fill="#DB5D87" d="M67.508,179.301c1.131,2.842,2.465,5.574,3.986,8.19l22.797,22.8c2.616,1.52,5.353,2.854,8.189,3.988
						L67.508,179.301z"/>
				</g>
				<g>
					<path fill="#DB5D87" d="M63.223,160.742c0.119,1.587,0.281,3.162,0.512,4.711l52.599,52.599
						c1.549,0.231,3.125,0.392,4.709,0.509L63.223,160.742z"/>
				</g>
				<g>
					<path fill="#DB5D87" d="M63.699,146.935c-0.181,1.244-0.318,2.505-0.424,3.775l67.8,67.802c1.27-0.105,2.531-0.241,3.776-0.426
						L63.699,146.935z"/>
				</g>
				<g>
					<path fill="#DB5D87" d="M66.507,135.458c-0.364,1.052-0.701,2.115-1.012,3.192l77.645,77.638
						c1.072-0.31,2.133-0.645,3.187-1.011L66.507,135.458z"/>
				</g>
				<g>
					<path fill="#DB5D87" d="M70.923,125.594c-0.503,0.904-0.986,1.822-1.445,2.755l83.96,83.96c0.929-0.46,1.849-0.944,2.753-1.447
						L70.923,125.594z"/>
				</g>
				<g>
					<path fill="#DB5D87" d="M76.654,117.046c-0.62,0.78-1.225,1.579-1.807,2.39l87.505,87.505c0.811-0.585,1.607-1.188,2.39-1.81
						L76.654,117.046z"/>
				</g>
				<g>
					<path fill="#DB5D87" d="M83.548,109.658c-0.731,0.663-1.447,1.349-2.15,2.05l88.683,88.681
						c0.699-0.701,1.382-1.421,2.049-2.152L83.548,109.658z"/>
				</g>
				<g>
					<path fill="#DB5D87" d="M91.621,103.446c-0.846,0.55-1.675,1.118-2.495,1.708l87.509,87.505
						c0.588-0.818,1.155-1.647,1.706-2.495L91.621,103.446z"/>
				</g>
				<g>
					<path fill="#DB5D87" d="M100.912,98.458c-0.97,0.417-1.926,0.861-2.868,1.329L182,183.743c0.465-0.944,0.91-1.901,1.327-2.87
						L100.912,98.458z"/>
				</g>
				<g>
					<path fill="#DB5D87" d="M111.681,94.943c-1.127,0.26-2.241,0.542-3.339,0.863l77.639,77.637c0.317-1.1,0.605-2.214,0.861-3.339
						L111.681,94.943z"/>
				</g>
				<g>
					<path fill="#DB5D87" d="M124.398,93.375c-1.346,0.027-2.678,0.096-3.997,0.209l67.802,67.802
						c0.111-1.323,0.179-2.654,0.209-3.996L124.398,93.375z"/>
				</g>
				<g>
					<path fill="#DB5D87" d="M140.379,95.079c-1.723-0.413-3.462-0.769-5.235-1.037l52.595,52.599
						c-0.266-1.771-0.618-3.517-1.033-5.235L140.379,95.079z"/>
				</g>
				<g>
					<path fill="#DB5D87" d="M157.188,101.807l22.792,22.792C174.496,115.161,166.626,107.291,157.188,101.807z"/>
				</g>
			</g>
			<path opacity="0.5" fill="#DB5D87" d="M54.131,431.27c0,9.314-7.555,16.875-16.873,16.875c-9.323,0-16.876-7.561-16.876-16.875
				c0-9.32,7.553-16.874,16.876-16.874C46.576,414.396,54.131,421.949,54.131,431.27z"/>
			<path opacity="0.5" fill="#DB5D87" d="M48.734,455.89c-9.97,0-18.079-8.107-18.079-18.074c0-9.968,8.109-18.075,18.079-18.075
				c9.964,0,18.077,8.107,18.077,18.075C66.811,447.782,58.698,455.89,48.734,455.89z M48.734,422.145
				c-8.643,0-15.672,7.03-15.672,15.671s7.03,15.67,15.672,15.67c8.639,0,15.668-7.029,15.668-15.67S57.373,422.145,48.734,422.145z
				"/>
			<polygon opacity="0.5" fill="#DB5D87" points="449.133,146.807 487.062,184.736 508.929,124.942 			"/>
			<path opacity="0.5" fill="#DB5D87" d="M495.086,179.381l-40.598-40.597l64-23.404L495.086,179.381z M458.857,139.748
				l35.265,35.264l20.331-55.593L458.857,139.748z"/>
			<g opacity="0.5">
				<polygon fill="#DB5D87" points="655.791,215.893 683.66,170.063 630.791,169.298 				"/>
				<path fill="#DB5D87" d="M643.72,211.537l-26.961-50.249l57.017,0.822L643.72,211.537z M620.814,163.753l23.037,42.938
					l25.684-42.237L620.814,163.753z"/>
			</g>
			<g opacity="0.5">
				<g>
					<path fill="#DB5D87" d="M219.933,279.738l0.002-14.783c0-1.053,0.409-2.045,1.155-2.791c0.748-0.748,1.739-1.159,2.797-1.159
						h14.783c1.051,0,2.046,0.411,2.793,1.153c0.746,0.752,1.153,1.744,1.153,2.797v14.783c0,2.141-1.81,3.95-3.946,3.95h-14.783
						c-1.059,0-2.052-0.411-2.797-1.157C220.357,281.8,219.933,280.778,219.933,279.738z M239.009,264.955
						c0-0.09-0.038-0.181-0.1-0.241c-0.064-0.065-0.147-0.1-0.239-0.1h-14.783c-0.125,0-0.206,0.063-0.241,0.104
						c-0.045,0.042-0.1,0.121-0.1,0.237l-0.004,14.783c0,0.089,0.04,0.173,0.104,0.241c0.064,0.063,0.149,0.1,0.241,0.1h14.783
						c0.141,0,0.339-0.198,0.339-0.341V264.955z"/>
				</g>
				<g>
					<path fill="#DB5D87" d="M208.592,291.081v-14.784c0-1.054,0.413-2.047,1.157-2.789c0.744-0.752,1.737-1.161,2.795-1.161h14.786
						c1.05,0,2.045,0.409,2.791,1.157c0.745,0.746,1.155,1.739,1.155,2.793v14.784c0,2.14-1.807,3.948-3.946,3.948h-14.786
						c-1.058,0-2.051-0.41-2.795-1.157C209.016,293.138,208.592,292.12,208.592,291.081z M227.669,276.297
						c0-0.089-0.04-0.177-0.104-0.241c-0.063-0.064-0.145-0.1-0.236-0.1h-14.786c-0.126,0-0.206,0.062-0.241,0.1
						c-0.045,0.045-0.102,0.124-0.102,0.241v14.784c0,0.089,0.038,0.176,0.102,0.239c0.066,0.066,0.148,0.103,0.241,0.103h14.786
						c0.14,0,0.339-0.2,0.339-0.342V276.297z"/>
				</g>
			</g>
			<g opacity="0.5">
				<g>
					<path fill="#DB5D87" d="M495.452,56.17l0.001-14.783c0-1.056,0.409-2.05,1.155-2.793c0.747-0.75,1.74-1.161,2.797-1.161h14.781
						c1.056,0,2.049,0.411,2.795,1.157c0.744,0.747,1.153,1.741,1.153,2.793V56.17c0,2.141-1.807,3.946-3.948,3.946h-14.781
						c-1.059,0-2.054-0.411-2.797-1.157C495.874,58.224,495.452,57.206,495.452,56.17z M514.53,41.383
						c0-0.088-0.038-0.177-0.102-0.241s-0.149-0.098-0.241-0.098h-14.781c-0.126,0-0.206,0.064-0.243,0.098
						c-0.043,0.049-0.098,0.125-0.098,0.245l-0.001,14.783c0,0.086,0.038,0.173,0.1,0.241c0.066,0.062,0.151,0.098,0.243,0.098
						h14.781c0.147,0,0.343-0.2,0.343-0.339V41.383z"/>
				</g>
				<g>
					<path fill="#DB5D87" d="M484.108,67.511l0.006-14.783c0-1.055,0.407-2.047,1.149-2.793c0.75-0.75,1.745-1.157,2.799-1.157
						h14.781c1.057,0,2.05,0.407,2.795,1.153c0.748,0.75,1.155,1.742,1.155,2.797v14.783c0,2.141-1.808,3.95-3.95,3.95h-14.781
						c-1.056,0-2.052-0.411-2.799-1.161C484.533,69.569,484.108,68.548,484.108,67.511z M503.186,52.729
						c0-0.094-0.036-0.181-0.102-0.245c-0.062-0.064-0.147-0.098-0.241-0.098h-14.781c-0.126,0-0.206,0.064-0.243,0.102
						c-0.043,0.042-0.098,0.125-0.098,0.241l-0.003,14.783c0,0.086,0.038,0.175,0.102,0.241c0.066,0.062,0.151,0.098,0.243,0.098
						h14.781c0.143,0,0.343-0.196,0.343-0.339V52.729z"/>
				</g>
			</g>
			<g opacity="0.5">
				<path fill="#DB5D87" d="M376.77,437.685l-58.842-58.846l0.778-0.782c16.225-16.223,42.622-16.223,58.844,0
					c7.863,7.862,12.189,18.311,12.189,29.426s-4.327,21.567-12.189,29.423L376.77,437.685z M321.058,378.849l55.701,55.706
					c6.956-7.348,10.771-16.916,10.771-27.072c0-10.523-4.099-20.421-11.541-27.861
					C360.889,364.518,336.479,364.264,321.058,378.849z"/>
			</g>
			<g opacity="0.5">
				<polygon fill="#DB5D87" points="354.408,78.879 318.352,114.935 318.352,78.879 				"/>
				<polygon fill="#DB5D87" points="320.924,128.617 356.982,92.558 356.982,128.617 				"/>
				
					<rect x="353.205" y="8.065" transform="matrix(0.7067 0.7075 -0.7075 0.7067 159.7558 -227.6132)" fill="#DB5D87" width="2.408" height="141.629"/>
				
					<rect x="329.442" y="70.166" transform="matrix(0.707 0.7072 -0.7072 0.707 180.9618 -198.9988)" fill="#DB5D87" width="2.407" height="97.461"/>
			</g>
			<rect x="321.589" y="220.641" opacity="0.5" fill="#DB5D87" width="53.82" height="53.822"/>
			<path opacity="0.5" fill="#DB5D87" d="M386.236,266.041h-56.225v-56.229h56.225V266.041z M332.417,263.636h51.415v-51.415
				h-51.415V263.636z"/>
			<path opacity="0.5" fill="#DB5D87" d="M517.769,450.429c-26.556,0-48.164-21.604-48.164-48.162s21.608-48.163,48.164-48.163
				c26.559,0,48.165,21.605,48.165,48.163S544.328,450.429,517.769,450.429z M517.769,356.509
				c-25.231,0-45.758,20.526-45.758,45.758c0,25.23,20.527,45.758,45.758,45.758c25.233,0,45.758-20.527,45.758-45.758
				C563.527,377.035,543.002,356.509,517.769,356.509z"/>
			<g opacity="0.5">
				<g>
					<path fill="#DB5D87" d="M213.512,26.364c-21.562,0-39.1-17.54-39.1-39.098c0-21.558,17.538-39.099,39.1-39.099
						c21.558,0,39.097,17.541,39.097,39.099C252.608,8.824,235.069,26.364,213.512,26.364z M213.512-47.02
						c-18.907,0-34.289,15.38-34.289,34.286s15.382,34.286,34.289,34.286c18.903,0,34.284-15.38,34.284-34.286
						S232.415-47.02,213.512-47.02z"/>
				</g>
			</g>
			<g opacity="0.5">
				<g>
					<path fill="#DB5D87" d="M213.512,14.582c-15.062,0-27.313-12.254-27.313-27.315s12.251-27.313,27.313-27.313
						c15.058,0,27.316,12.251,27.316,27.313S228.569,14.582,213.512,14.582z M213.512-35.237c-12.409,0-22.5,10.095-22.5,22.503
						s10.092,22.504,22.5,22.504c12.409,0,22.505-10.096,22.505-22.504S225.921-35.237,213.512-35.237z"/>
				</g>
			</g>
			<g opacity="0.5">
				<g>
					<path fill="#DB5D87" d="M213.512,37.901c-27.92,0-50.635-22.715-50.635-50.635c0-27.922,22.715-50.637,50.635-50.637
						c27.918,0,50.633,22.715,50.633,50.637C264.145,15.187,241.43,37.901,213.512,37.901z M213.512-58.559
						c-25.269,0-45.824,20.557-45.824,45.825c0,25.265,20.555,45.822,45.824,45.822c25.267,0,45.823-20.557,45.823-45.822
						C259.335-38.001,238.778-58.559,213.512-58.559z"/>
				</g>
			</g>
			<g opacity="0.5">
				<g>
					<path fill="#DB5D87" d="M213.512,48.73c-33.889,0-61.462-27.571-61.462-61.464c0-33.893,27.573-61.463,61.462-61.463
						c33.89,0,61.462,27.57,61.462,61.463C274.974,21.159,247.401,48.73,213.512,48.73z M213.512-69.385
						c-31.237,0-56.651,25.416-56.651,56.651c0,31.235,25.414,56.651,56.651,56.651c31.238,0,56.65-25.416,56.65-56.651
						C270.162-43.97,244.75-69.385,213.512-69.385z"/>
				</g>
			</g>
			<g opacity="0.5">
				<g>
					<path fill="#DB5D87" d="M213.512,59.555c-39.861,0-72.289-32.43-72.289-72.289c0-39.86,32.428-72.29,72.289-72.29
						c39.858,0,72.288,32.43,72.288,72.29C285.8,27.125,253.37,59.555,213.512,59.555z M213.512-80.213
						c-37.208,0-67.48,30.272-67.48,67.479c0,37.206,30.272,67.478,67.48,67.478c37.207,0,67.476-30.272,67.476-67.478
						C280.987-49.941,250.719-80.213,213.512-80.213z"/>
				</g>
			</g>
			<g opacity="0.5">
				<path fill="#DB5D87" d="M319.273,451.209c15.819,15.815,41.466,15.819,57.284,0.004l-57.284-57.292
					C303.456,409.744,303.456,435.392,319.273,451.209z"/>
			</g>
			<path opacity="0.5" fill="#DB5D87" d="M555.797,287.904c0,21.987-17.823,39.815-39.814,39.815
				c-21.987,0-39.812-17.828-39.812-39.815s17.824-39.812,39.812-39.812C537.974,248.093,555.797,265.917,555.797,287.904z"/>
			<path opacity="0.5" fill="#DB5D87" d="M54.904,317.316c-0.433,0-0.865-0.166-1.195-0.495c-0.66-0.66-0.66-1.729,0-2.388
				l46.849-46.848c0.66-0.663,1.728-0.663,2.388,0c0.66,0.656,0.66,1.727,0,2.386l-46.849,46.85
				C55.767,317.15,55.335,317.316,54.904,317.316z"/>
			<polygon opacity="0.5" fill="#DB5D87" points="495.981,302.698 467.828,330.852 451.596,286.468 			"/>
			<circle opacity="0.5" fill="#DB5D87" cx="472.384" cy="383.119" r="25.302"/>
		</g>
	</g>
</g>
</svg>
