<?xml version="1.0" encoding="utf-8"?>

<!DOCTYPE svg PUBLIC "-//W3C//DTD SVG 1.1//EN" "http://www.w3.org/Graphics/SVG/1.1/DTD/svg11.dtd">
<svg version="1.1" id="Layer_1" xmlns="http://www.w3.org/2000/svg" xmlns:xlink="http://www.w3.org/1999/xlink" x="0px" y="0px"
	 width="130.333px" height="130.667px" viewBox="0 0 130.333 130.667" enable-background="new 0 0 130.333 130.667"
	 xml:space="preserve">
<g opacity="0.5">
	<g>
		<path fill="#DB5D87" d="M5.508,89.407c1.131,2.842,2.465,5.574,3.986,8.19l22.797,22.8c2.616,1.52,5.353,2.854,8.189,3.988
			L5.508,89.407z"/>
	</g>
	<g>
		<path fill="#DB5D87" d="M1.223,70.848c0.119,1.587,0.281,3.162,0.512,4.711l52.599,52.599c1.549,0.231,3.125,0.392,4.709,0.509
			L1.223,70.848z"/>
	</g>
	<g>
		<path fill="#DB5D87" d="M1.699,57.041c-0.181,1.244-0.318,2.505-0.424,3.775l67.8,67.802c1.27-0.105,2.531-0.241,3.776-0.426
			L1.699,57.041z"/>
	</g>
	<g>
		<path fill="#DB5D87" d="M4.507,45.564c-0.364,1.052-0.701,2.115-1.012,3.192l77.645,77.638c1.072-0.31,2.133-0.645,3.187-1.011
			L4.507,45.564z"/>
	</g>
	<g>
		<path fill="#DB5D87" d="M8.923,35.7c-0.503,0.904-0.986,1.822-1.445,2.755l83.96,83.96c0.929-0.46,1.849-0.944,2.753-1.447
			L8.923,35.7z"/>
	</g>
	<g>
		<path fill="#DB5D87" d="M14.654,27.152c-0.62,0.78-1.225,1.579-1.807,2.39l87.505,87.505c0.811-0.585,1.607-1.188,2.39-1.81
			L14.654,27.152z"/>
	</g>
	<g>
		<path fill="#DB5D87" d="M21.548,19.764c-0.731,0.663-1.447,1.349-2.15,2.05l88.683,88.681c0.699-0.701,1.382-1.421,2.049-2.152
			L21.548,19.764z"/>
	</g>
	<g>
		<path fill="#DB5D87" d="M29.621,13.552c-0.846,0.55-1.675,1.118-2.495,1.708l87.509,87.505c0.588-0.818,1.155-1.647,1.705-2.495
			L29.621,13.552z"/>
	</g>
	<g>
		<path fill="#DB5D87" d="M38.912,8.564c-0.97,0.417-1.926,0.861-2.868,1.329L120,93.849c0.466-0.944,0.91-1.901,1.327-2.87
			L38.912,8.564z"/>
	</g>
	<g>
		<path fill="#DB5D87" d="M49.681,5.049c-1.127,0.26-2.241,0.542-3.339,0.863l77.639,77.637c0.316-1.1,0.605-2.214,0.861-3.339
			L49.681,5.049z"/>
	</g>
	<g>
		<path fill="#DB5D87" d="M62.398,3.481c-1.346,0.027-2.678,0.096-3.997,0.209l67.802,67.802c0.11-1.323,0.178-2.654,0.209-3.996
			L62.398,3.481z"/>
	</g>
	<g>
		<path fill="#DB5D87" d="M78.379,5.185c-1.723-0.413-3.462-0.769-5.235-1.037l52.594,52.599c-0.266-1.771-0.617-3.517-1.032-5.235
			L78.379,5.185z"/>
	</g>
	<g>
		<path fill="#DB5D87" d="M95.188,11.913l22.792,22.792C112.496,25.267,104.626,17.397,95.188,11.913z"/>
	</g>
</g>
</svg>
