<?xml version="1.0" encoding="utf-8"?>
<!-- Generator: Adobe Illustrator 16.0.0, SVG Export Plug-In . SVG Version: 6.00 Build 0)  -->
<!DOCTYPE svg PUBLIC "-//W3C//DTD SVG 1.1//EN" "http://www.w3.org/Graphics/SVG/1.1/DTD/svg11.dtd">
<svg version="1.1" id="Layer_1" xmlns="http://www.w3.org/2000/svg" xmlns:xlink="http://www.w3.org/1999/xlink" x="0px" y="0px"
	 width="1226.828px" height="280.9px" viewBox="0 0 1226.828 280.9" enable-background="new 0 0 1226.828 280.9"
	 xml:space="preserve">
<path fill="none" d="M-0.172,136.009v37.386C0.346,159.713,0.623,146.764-0.172,136.009z"/>
<path fill="#FAEE5F" d="M641.741,1.207H346.489h-27.012H24.225H-0.172v134.802c0.794,10.754,0.518,23.704,0,37.386v74.549
	c2.598,19.808,9.231,33.433,24.396,32.943c54.11,1.746-0.379-176.182,40.644-173.564c41.021,2.618-0.494,94.141,44.889,91.524
	c45.383-2.618,11.233-103.71,47.892-102.838c36.658,0.873,5.199,90.518,55.817,90.518c57.84,0,12.838-91.366,63.362-89.764
	c54.423,1.729-1.919,135.94,56.155,135.306c58.073,0.635,1.731-133.577,56.154-135.306c50.524-1.602,5.522,89.764,63.362,89.764
	c50.619,0,19.161-89.646,55.818-90.518c36.658-0.872,2.509,100.22,47.891,102.838c45.383,2.617,3.867-88.906,44.888-91.524
	c41.022-2.618-13.466,175.31,40.644,173.564c54.11,1.746-0.379-176.182,40.643-173.564c41.022,2.618-0.494,94.141,44.889,91.524
	c45.383-2.618,11.233-103.71,47.891-102.838c36.658,0.873,5.201,90.518,55.82,90.518c57.839,0,12.837-91.366,63.36-89.764
	c54.988,1.746-2.988,138.738,58.103,135.248c61.863-3.535,3.036-201.169,56.557-203.89c44.505-2.262,1.925,124.467,45.561,129.706
	c43.637,5.239-0.611-90.408,51.754-96.517c52.367-6.109,6.743,113.971,44.271,118.335c37.527,4.364,24.889-50.436,29.176-100.274
	c0,0,5.229-42.025,23.729-78.165H641.741z"/>
<path fill="#FAEE5F" d="M-0.172,247.944v-74.549C-1.137,198.885-2.932,226.903-0.172,247.944z"/>
</svg>
